<?xml version="1.0" encoding="utf-8"?>
<!-- Generator: Adobe Illustrator 27.7.0, SVG Export Plug-In . SVG Version: 6.00 Build 0)  -->
<svg version="1.1" id="Layer_2_00000117653600784242038930000013337175767585935788_"
	 xmlns="http://www.w3.org/2000/svg" xmlns:xlink="http://www.w3.org/1999/xlink" x="0px" y="0px" viewBox="0 0 512 512"
	 style="enable-background:new 0 0 512 512;" xml:space="preserve">
<style type="text/css">
	.st0{fill:none;stroke:#CCC;stroke-width:8;stroke-miterlimit:10;}
	.st1{fill:none;stroke:#CCC;stroke-width:15;stroke-miterlimit:10;}
	.st2{fill:none;stroke:#CCC;stroke-width:17;stroke-miterlimit:10;}
	.st3{fill:none;stroke:#CCC;stroke-width:15;stroke-linecap:round;stroke-linejoin:round;stroke-miterlimit:10;}
</style>
<g>
	<line class="st0" x1="103.2" y1="152.3" x2="103.2" y2="394.9"/>
	<line class="st1" x1="70.3" y1="152.3" x2="70.3" y2="394.9"/>
	<line class="st1" x1="161.7" y1="152.3" x2="161.7" y2="394.9"/>
	<line class="st0" x1="128.7" y1="152.3" x2="128.7" y2="394.9"/>
	<line class="st0" x1="209.6" y1="152.3" x2="209.6" y2="394.9"/>
	<line class="st0" x1="188.8" y1="152.3" x2="188.8" y2="394.9"/>
	<line class="st0" x1="271.3" y1="152.3" x2="271.3" y2="394.8"/>
	<line class="st1" x1="239.3" y1="152.3" x2="239.3" y2="394.9"/>
	<line class="st0" x1="325.4" y1="152.3" x2="325.4" y2="394.9"/>
	<line class="st0" x1="300.4" y1="152.3" x2="300.4" y2="394.9"/>
	<line class="st0" x1="385.9" y1="152.3" x2="385.9" y2="394.9"/>
	<line class="st1" x1="351.1" y1="152.3" x2="351.1" y2="394.9"/>
	<line class="st1" x1="441.4" y1="152.3" x2="441.4" y2="394.9"/>
	<line class="st0" x1="412.1" y1="152.3" x2="412.1" y2="394.9"/>
	<line class="st2" x1="18.3" y1="273.5" x2="483.7" y2="273.5"/>
	<polyline class="st3" points="16.7,176.3 16.7,119.1 74,119.1 	"/>
	<polyline class="st3" points="74,428.2 16.7,428.2 16.7,371 	"/>
	<polyline class="st3" points="488.3,372.4 488.3,429.6 431,429.6 	"/>
	<polyline class="st3" points="431,120.5 488.3,120.5 488.3,177.8 	"/>
</g>
</svg>
