<?xml version="1.0" encoding="UTF-8"?>
<svg id="Layer_1" data-name="Layer 1" xmlns="http://www.w3.org/2000/svg" viewBox="0 0 512 512">
  <defs>
    <style>
      .cls-1 {
        fill: #fff;
        stroke-width: 0px;
      }
    </style>
  </defs>
  <path class="cls-1" d="m463.95,265.37c0,44.66-.07,89.31.11,133.97.02,4.04-1.27,5.69-4.91,7.15-61.08,24.65-122.1,49.43-183.1,74.28-4.38,1.79-8.3,1.94-12.88.51-51.1-16.03-102.27-31.85-153.41-47.75-19.53-6.07-39.02-12.3-58.58-18.26-3.04-.93-4.18-2.15-4.16-5.44.41-90.14.73-180.29.97-270.43,0-3,1.04-4.3,3.74-5.39,61.22-24.74,122.42-49.53,183.55-74.49,4.92-2.01,9.23-2.2,14.29-.62,70,21.91,140.04,43.67,210.12,65.32,3.98,1.23,5.35,2.89,5.34,7.18-.18,44.65-.11,89.31-.11,133.97h-.96ZM71.84,154.72c0,2.06,0,3.67,0,5.29-.31,76.66-.57,153.32-1.04,229.98-.03,4.66,1.29,6.52,5.74,7.89,55.8,17.19,111.52,34.6,167.27,51.95,6.6,2.05,13.21,4.04,20,6.11.11-1.19.21-1.85.22-2.51.33-78.33.63-156.65,1.07-234.98.02-3.53-1.61-4.44-4.38-5.3-61.16-18.99-122.3-38.03-183.46-57.05-1.56-.48-3.16-.81-5.41-1.38Zm369.24-7.63c-2.14.79-3.68,1.31-5.19,1.92-52.13,21.02-104.24,42.1-156.42,63-3.81,1.53-5.16,3.37-5.17,7.55-.14,76.8-.45,153.6-.72,230.41,0,1.6,0,3.19,0,5.55,2.5-.96,4.18-1.59,5.84-2.26,51.97-20.96,103.93-41.96,155.96-62.79,3.68-1.47,4.87-3.21,4.88-7.19.17-76.64.51-153.27.82-229.9,0-1.82,0-3.65,0-6.29Zm-359.49.44c1.26.69,1.79,1.1,2.39,1.29,61.05,18.8,122.1,37.6,183.18,56.28,1.71.52,3.97.36,5.64-.32,51.51-20.84,102.97-41.79,154.44-62.73,1.07-.44,2.08-1.05,3.51-1.79-1.18-.55-1.75-.91-2.37-1.1-60.55-18.72-121.1-37.45-181.7-56.03-2.13-.65-4.95-.4-7.05.43-27.97,11.16-55.86,22.5-83.77,33.81-24.51,9.93-49,19.89-74.28,30.15Z"/>
</svg>