<?xml version="1.0" encoding="UTF-8"?>
<svg id="Layer_1" data-name="Layer 1" xmlns="http://www.w3.org/2000/svg" viewBox="0 0 512 512">
  <defs>
    <style>
      .st0{fill:none;stroke:#FFFFFF;stroke-width:17;stroke-miterlimit:10;}
	    .st1{fill:none;stroke:#FFFFFF;stroke-width:15;stroke-linecap:round;stroke-linejoin:round;stroke-miterlimit:10;}
	    .st2{fill:#FFFFFF;}
    </style>
  </defs>
  <polygon class="st0" points="122 168.95 122 365.95 296.5 466.95 472.7 365.95 472.7 168.25 297.3 66.05 122 168.95"/>
  <polyline class="st0" points="472.3 168.35 297.3 266.45 296.5 466.55"/>
  <line class="st0" x1="241.9" y1="235.45" x2="297.3" y2="266.45"/>
  <line class="st0" x1="180.1" y1="201.25" x2="122" y2="168.95"/>
  <line class="st0" x1="203.1" y1="212.65" x2="219.8" y2="222.25"/>
  <g>
    <line class="st1" x1="68.91" y1="191.9" x2="68.91" y2="341.1"/>
    <path class="st2" d="m68.91,155.7c-6.3,17-17.1,38.2-28.5,51.3l28.5-10.3,28.5,10.3c-11.3-13.1-22.1-34.2-28.5-51.3Z"/>
    <path class="st2" d="m68.91,377.3c-6.3-17-17.1-38.2-28.5-51.3l28.5,10.3,28.5-10.3c-11.3,13.1-22.1,34.3-28.5,51.3Z"/>
  </g>
</svg>