<?xml version="1.0" encoding="UTF-8"?>
<svg id="Layer_1" data-name="Layer 1" xmlns="http://www.w3.org/2000/svg" viewBox="0 0 512 512">
  <defs>
    <style>
      .cls-1 {
        fill: #fff;
        stroke-width: 0px;
      }
    </style>
  </defs>
  <path class="cls-1" d="m450.1,261.41c0,48.33-.06,96.66.1,144.99.02,4.8-1.65,7.55-5.65,10.02-29.45,18.22-58.75,36.7-88.22,54.89-2.65,1.64-6.16,2.64-9.27,2.64-60.66.15-121.33.15-181.99,0-3.11,0-6.63-.97-9.27-2.6-29.89-18.45-59.63-37.15-89.48-55.68-3.21-1.99-4.49-4.35-4.48-8.12.08-97.66.08-195.32-.01-292.99,0-4.03,1.46-6.39,4.78-8.45,29.85-18.52,59.6-37.22,89.47-55.7,2.39-1.48,5.54-2.39,8.35-2.4,61-.13,121.99-.14,182.99,0,2.96,0,6.28,1,8.8,2.56,29.6,18.3,59.03,36.87,88.63,55.17,3.88,2.4,5.36,5.08,5.34,9.65-.15,48.66-.1,97.33-.1,145.99Zm-104.41,203.1V176.21h-179.37v288.3h179.37Zm90.52-352.5c-.9-.74-1.24-1.1-1.65-1.35-27.66-17.3-55.29-34.63-83.03-51.81-1.82-1.13-4.37-1.53-6.59-1.53-59.3-.08-118.61-.09-177.91.03-2.63,0-5.56.95-7.84,2.32-10.56,6.33-20.95,12.95-31.39,19.48-17.19,10.75-34.38,21.5-52.12,32.6,1.93,1.27,3.4,2.29,4.91,3.23,25.97,16.24,51.9,32.53,77.96,48.6,2.51,1.55,5.84,2.49,8.79,2.49,50.47.15,100.95.12,151.42.1,10.32,0,21.23,1.91,30.8-.8,9.39-2.67,17.43-10.09,26.04-15.46,20.03-12.51,40.05-25.04,60.6-37.89Zm-364.81,8.71c-.09,1.86-.17,2.84-.17,3.82,0,92.96,0,185.93-.07,278.89,0,3.07,1.05,4.76,3.6,6.34,26.03,16.14,51.98,32.42,77.96,48.63,1.01.63,2.19,1.01,3.65,1.68.09-1.9.21-3.21.21-4.51,0-92.46-.01-184.93.09-277.39,0-3.52-1.28-5.36-4.1-7.11-25.6-15.88-51.12-31.89-76.68-47.85-1.23-.77-2.54-1.41-4.49-2.49Zm284.01,339.83c1.74-.91,2.5-1.24,3.19-1.67,26.4-16.49,52.83-32.94,79.1-49.63,1.63-1.04,2.95-3.94,2.95-5.98.14-92.63.13-185.26.11-277.89,0-1.38-.21-2.76-.36-4.67-2.17,1.31-3.74,2.22-5.28,3.18-24.98,15.62-49.91,31.33-75.01,46.76-3.62,2.23-4.81,4.56-4.8,8.72.12,91.63.09,183.26.09,274.89,0,1.78,0,3.56,0,6.29Z"/>
</svg>