<?xml version="1.0" encoding="UTF-8"?>
<svg id="Layer_1" data-name="Layer 1" xmlns="http://www.w3.org/2000/svg" viewBox="0 0 512 512">
  <defs>
    <style>
      .cls-1 {
        fill: #fff;
        stroke-width: 0px;
      }
    </style>
  </defs>
  <path class="cls-1" d="m74.71,256.07c0-42.17.02-84.35-.04-126.52,0-2.9.36-4.8,3.56-6.09,57.81-23.31,115.59-46.7,173.3-70.27,4.51-1.84,8.46-2.07,13.03-.64,66.53,20.81,133.09,41.53,199.68,62.13,3.3,1.02,3.88,2.66,3.86,5.71-.35,84.82-.63,169.64-.85,254.46,0,2.69-.64,4.2-3.35,5.29-58.56,23.64-117.07,47.41-175.66,70.97-2.61,1.05-6.19,1.17-8.89.34-62.69-19.28-125.32-38.74-187.96-58.18-2.25-.7-4.48-1.45-6.72-2.17q-10.83-3.53-10.83-15.11c0-39.97,0-79.94,0-119.91.28,0,.56,0,.84,0Zm204.02,171.74v-89.08c-40.65-3.27-71.96-22.07-90.79-58.56-18.74-36.33-15.63-72.54,5.13-107.8-32.09-9.98-63.92-19.87-96.47-29.99,0,2.65,0,4.49,0,6.34-.25,72.56-.47,145.13-.86,217.69-.02,3.82,1.46,5.08,4.73,6.09,49.66,15.36,99.29,30.84,148.93,46.27,9.56,2.97,19.14,5.9,29.33,9.03Zm76.51-262.85c-2.51,2.89-4.55,5.48-6.84,7.83-5.77,5.9-8.31,6.85-10.69,3.84-4.17-5.28,1.31-7.47,3.88-10.29,2.28-2.51,5.19-4.44,8.12-6.87-18.3-16.33-38.18-24.65-61.68-25.88,0,5.24-.05,9.92.02,14.61.05,3.27-1.11,5.82-4.59,5.93-3.76.12-5.07-2.45-5.02-5.96.07-4.68.02-9.37.02-14.6-23.58,1.33-43.54,9.58-61.27,25.59,3.82,3.58,7.15,6.69,10.47,9.81,2.42,2.28,3.88,4.85,1.08,7.71-2.79,2.85-5.42,1.54-7.72-.91-3.21-3.42-6.37-6.89-9.89-10.7-15.84,17.95-24.28,37.78-25.53,61.25,5.11,0,9.8-.05,14.49.02,3.36.05,6.02,1.24,5.91,5.14-.1,3.73-2.73,4.5-5.92,4.46-4.68-.06-9.36-.01-14.48-.01,1.24,23.7,9.67,43.62,25.36,61.34,3.64-3.81,6.81-7.08,9.93-10.41,2.33-2.49,5.01-3.69,7.78-1.09,2.9,2.72,1.45,5.38-.94,7.71-3.35,3.27-6.7,6.53-10.37,10.11,17.66,15.75,37.64,23.87,61.09,25.38,0-5.06.04-9.74-.01-14.41-.04-3.39.93-6.13,4.83-6.11,3.91.02,4.81,2.81,4.77,6.18-.05,4.67-.01,9.35-.01,14.34,23.5-1.47,43.47-9.65,61.31-25.56-3.78-3.54-7.22-6.73-10.62-9.95-2.43-2.3-3.83-4.99-.92-7.69,2.77-2.58,5.46-1.37,7.79,1.11,3.18,3.41,6.41,6.77,9.9,10.44,15.76-17.93,24.18-37.79,25.36-61.38-4.98,0-9.5-.04-14.03.01-3.26.04-6.27-.42-6.34-4.5-.07-4.21,2.92-5.11,6.41-5.12,4.53-.01,9.05,0,13.96,0-1.24-23.51-9.7-43.34-25.61-61.36Zm-67.66,262.2c1.95-.68,3.71-1.22,5.4-1.91,49.21-19.84,98.39-39.75,147.65-59.47,3.71-1.48,4.75-3.43,4.75-7.25.14-72.85.43-145.7.67-218.54,0-1.34-.17-2.69-.3-4.6-25.89,10.45-51.26,20.7-76.65,30.94,24.05,35.24,29.09,72.28,11.05,110.52-18.15,38.48-50.2,58.34-92.58,61.99v88.32Zm149.5-297.75c-2.25-.87-3.5-1.44-4.8-1.84-56.37-17.42-112.73-34.87-169.15-52.13-2.56-.78-5.97-.55-8.48.46-48.55,19.5-97.02,39.18-145.5,58.84-1.01.41-1.97.98-3.69,1.85,30.91,9.55,60.87,18.84,90.89,27.98,1.1.33,2.96-.52,3.96-1.4,7.37-6.5,14.15-13.77,22-19.61,23.73-17.65,50.83-22.44,79.49-18,23.03,3.57,42.39,14.97,58.8,31.35,1.95,1.94,3.41,2.38,6.04,1.28,15.94-6.66,31.97-13.09,47.97-19.61,7.2-2.93,14.4-5.87,22.48-9.17Z"/>
  <path class="cls-1" d="m253.27,247.54c2.02-9.7,4.17-20.3,6.44-30.87,3.03-14.11,6.17-28.19,9.25-42.29,1.82-8.35,7-13.2,14.19-13.25,7.19-.05,12.54,4.82,14.34,13.08,4.89,22.53,9.8,45.05,14.65,67.59,3.42,15.89-6.05,31.57-21.36,35.45-16.02,4.06-31.74-5.15-36.15-21.27-.66-2.39-.81-4.93-1.36-8.43Zm50.05.88c-.08-.9-.07-2.18-.33-3.39-5.04-23.44-10.04-46.89-15.33-70.28-.36-1.59-3.13-3.92-4.42-3.71-1.74.29-4.08,2.47-4.52,4.25-2.7,10.79-4.99,21.68-7.31,32.56-2.77,13.02-5.99,25.99-7.98,39.13-1.71,11.34,7.69,21.31,19.12,21.71,11.19.39,20.65-8.67,20.77-20.27Z"/>
  <path class="cls-1" d="m283.34,235.35c6.62.05,12.09,5.45,12.1,11.96.01,6.37-5.64,12.05-12.06,12.13-6.56.09-12.5-5.86-12.32-12.34.18-6.55,5.67-11.81,12.28-11.76Z"/>
</svg>