<?xml version="1.0" encoding="utf-8"?>
<!-- Generator: Adobe Illustrator 27.7.0, SVG Export Plug-In . SVG Version: 6.00 Build 0)  -->
<svg version="1.1" id="Layer_2_00000147913616537626507890000010636984253704618627_"
	 xmlns="http://www.w3.org/2000/svg" xmlns:xlink="http://www.w3.org/1999/xlink" x="0px" y="0px" viewBox="0 0 512 512"
	 style="enable-background:new 0 0 512 512;" xml:space="preserve">
<style type="text/css">
	.st0{fill:none;stroke:#FFFFFF;stroke-width:15;stroke-linecap:round;stroke-linejoin:round;stroke-miterlimit:10;}
	.st1{fill:none;stroke:#FFFFFF;stroke-width:15;stroke-miterlimit:10;}
	.st2{fill:#FFFFFF;stroke:#FFFFFF;stroke-miterlimit:10;}
</style>
<polygon class="st0" points="88.7,133.5 88.7,330.4 263.3,431.4 439.4,330.4 439.4,132.8 264.1,30.6 "/>
<polyline class="st0" points="439,132.9 264.1,231 263.3,431.1 "/>
<line class="st0" x1="208.6" y1="200" x2="264.1" y2="231"/>
<line class="st0" x1="146.8" y1="165.8" x2="88.7" y2="133.5"/>
<line class="st0" x1="169.9" y1="177.2" x2="186.5" y2="186.8"/>
<g>
	<g>
		<line class="st1" x1="212.2" y1="462.9" x2="81.5" y2="391"/>
		<g>
			<path class="st2" d="M243.9,480.4c-11.9-13.8-25.2-33.4-31.2-49.7l-4.7,30l-22.8,20C202.2,476.9,225.9,477.7,243.9,480.4z"/>
		</g>
		<g>
			<path class="st2" d="M49.8,373.5c18,2.7,41.7,3.4,58.7-0.3l-22.8,20l-4.7,30C75,406.9,61.6,387.2,49.8,373.5z"/>
		</g>
	</g>
</g>
</svg>
