<?xml version="1.0" encoding="utf-8"?>
<!-- Generator: Adobe Illustrator 27.7.0, SVG Export Plug-In . SVG Version: 6.00 Build 0)  -->
<svg version="1.1" id="Layer_2_00000010988813564766820240000000915493964772583568_"
	 xmlns="http://www.w3.org/2000/svg" xmlns:xlink="http://www.w3.org/1999/xlink" x="0px" y="0px" viewBox="0 0 682.7 682.7"
	 style="enable-background:new 0 0 682.7 682.7;" xml:space="preserve">
<style type="text/css">
	.st0{fill:none;stroke:#FFFFFF;stroke-width:15;stroke-miterlimit:10;}
	.st1{fill:none;stroke:#FFFFFF;stroke-width:15;stroke-linecap:round;stroke-linejoin:round;stroke-miterlimit:10;}
	.st2{fill:#FFFFFF;stroke:#FFFFFF;stroke-miterlimit:10;}
	.st3{font-family:'Montserrat-Medium';}
	.st4{font-size:197.3704px;}
</style>
<path class="st0" d="M87.3,289.3c0,0,33.3-167.4,199.5-199.5"/>
<path class="st0" d="M148.1,299.6c0,0,27.5-123.8,151.9-149.1"/>
<path class="st0" d="M397.6,89.9c0,0,167,35.1,197.3,201.8"/>
<path class="st0" d="M386.6,150.6c0,0,123.5,28.9,147.4,153.6"/>
<path class="st0" d="M596.3,392.8c0,0-31.9,167.7-198,201.1"/>
<path class="st0" d="M533.5,385.9c0,0-26.5,124-150.7,150.3"/>
<path class="st0" d="M290,597.4c0,0-167.3-33.8-198.8-200.2"/>
<path class="st0" d="M300.5,536.7c0,0-123.7-28-148.6-152.4"/>
<polygon class="st1" points="312.1,20.8 370.7,20.8 341.6,183.4 "/>
<polygon class="st1" points="19.5,371.4 18.9,312.9 181.7,340.5 "/>
<polyline class="st1" points="315.4,636.7 310.3,665.4 372.2,665.4 342.4,502.9 322.4,608.1 "/>
<polyline class="st1" points="627.3,313 656,307.9 656,369.8 493.5,339.9 598.6,319.9 "/>
<text transform="matrix(1 0 0 1 263.2725 411.4092)" class="st2 st3 st4">H</text>
</svg>
