<?xml version="1.0" encoding="utf-8"?>
<!-- Generator: Adobe Illustrator 27.9.0, SVG Export Plug-In . SVG Version: 6.00 Build 0)  -->
<svg version="1.1" id="Layer_1" xmlns="http://www.w3.org/2000/svg" xmlns:xlink="http://www.w3.org/1999/xlink" x="0px" y="0px"
	 viewBox="0 0 512 512" style="enable-background:new 0 0 512 512;" xml:space="preserve">
<style type="text/css">
	.st0{fill:#FFFFFF;}
</style>
<g>
	<path class="st0" d="M157.03,339.5c0-55.6,0-110.46,0-166.03C259.72,122.13,362.95,70.51,467.47,18.25
		c-1.27,3.02-1.91,4.84-2.78,6.54c-45.21,88.07-90.41,176.14-135.8,264.12c-1.61,3.12-4.74,6.08-7.9,7.7
		c-26.82,13.72-53.78,27.16-80.76,40.55c-2.75,1.37-5.94,2.58-8.94,2.61c-23.36,0.21-46.73,0.12-70.1,0.1
		C160.11,339.86,159.01,339.68,157.03,339.5z"/>
	<path class="st0" d="M479.11,28.07c0,103.6,0,207.2,0,311.31c-46.63,0-93,0-140.65,0c2.26-17.94-3.03-35.84,6.47-53.94
		c43.78-83.43,86.42-167.46,129.48-251.26c1.11-2.15,2.29-4.27,3.43-6.4C478.27,27.87,478.69,27.97,479.11,28.07z"/>
	<path class="st0" d="M325.33,352.56c0,37.46,0,74.29,0,111.3c-102.49,0-204.58,0-308.48,0c3.47-1.91,5.33-3.02,7.26-3.99
		c69.24-34.67,138.47-69.38,207.81-103.86c4.25-2.11,9.41-3.24,14.17-3.3c23.81-0.33,47.63-0.15,71.44-0.15
		C319.97,352.56,322.42,352.56,325.33,352.56z"/>
	<path class="st0" d="M8.52,452.51c45.35-90.33,89.73-178.75,134.99-268.91c0.26,3.44,0.51,5.21,0.52,6.98
		c0.02,48.99,0.07,97.98-0.12,146.97c-0.01,2.75-1.19,6.46-3.17,8.08c-42.61,34.94-85.41,69.64-128.18,104.38
		C11.88,450.56,11.06,450.95,8.52,452.51z"/>
	<path class="st0" d="M474.72,353.1c-45.66,36.25-90.22,71.63-135.67,107.72c0-36.64,0-71.91,0-107.72
		C383.71,353.1,428.4,353.1,474.72,353.1z"/>
	<path class="st0" d="M206.54,354.09c-46.56,23.31-93.12,46.61-139.68,69.92c-0.21-0.32-0.41-0.64-0.62-0.97
		c16.66-13.55,33.32-27.11,49.98-40.66c10.21-8.29,20.55-16.43,30.61-24.9c4.43-3.73,8.53-5.66,14.91-5.24
		c14.68,0.96,29.46,0.31,44.19,0.31C206.14,353.07,206.34,353.58,206.54,354.09z"/>
	<path class="st0" d="M266.73,338.44c19.22-9.63,38.44-19.27,58.5-29.32c0,10.71,0,20.46,0,30.49c-19.54,0-38.71,0-57.88,0
		C267.14,339.22,266.94,338.83,266.73,338.44z"/>
</g>
</svg>
