<?xml version="1.0" encoding="utf-8"?>
<!-- Generator: Adobe Illustrator 27.7.0, SVG Export Plug-In . SVG Version: 6.00 Build 0)  -->
<svg version="1.1" id="Layer_2_00000126293338233281705380000006351816271056811914_"
	 xmlns="http://www.w3.org/2000/svg" xmlns:xlink="http://www.w3.org/1999/xlink" x="0px" y="0px" viewBox="0 0 512 512"
	 style="enable-background:new 0 0 512 512;" xml:space="preserve">
<style type="text/css">
	.st0{fill:none;stroke:#FFFFFF;stroke-width:15;stroke-miterlimit:10;}
	.st1{fill:#FFFFFF;stroke:#FFFFFF;stroke-miterlimit:10;}
	.st2{font-family:'Roboto-Regular';}
	.st3{font-size:122.7108px;}
</style>
<path class="st0" d="M342.9,24.1H121c-9.6,0-19.1,2.5-27.3,7.6c-7.4,4.6-15,12-19.5,23.8c-2.4,6.3-3.5,13.1-3.5,19.9v362.1
	c0,9,2.3,17.9,7,25.7c0.3,0.5,0.7,1.1,1,1.6c9.2,14.6,25.5,23.3,42.8,23.3h266.8c15.4,0,30.2-6.7,40-18.6c0.3-0.4,0.6-0.8,0.9-1.2
	c6.9-8.9,10.4-20,10.4-31.3V120.1L342.9,24.1z"/>
<path class="st0" d="M439.5,120.6l-47,0.6c-6,0-11.9-1.1-17.5-3.4c-9.5-3.9-22.2-11.9-27.7-27.5c-1.3-3.9-2-7.9-2.2-12l-2.2-54"/>
<line class="st0" x1="71" y1="359.8" x2="439.3" y2="359.8"/>
<path class="st0" d="M251,228.8l47.5,56.3c3.8,4.6,8.8,8.1,14.4,10c6.6,2.2,15.2,2.7,23.1-4.5c0,0,16.4-12.2,6.1-29.4
	c-1.6-2.7-3.8-5.2-6.2-7.2l-57.8-49.8l-3.8-3.8c0,0,18-58.2-30.4-74.4c0,0-23.6-8.1-41.6,1.7l12.8,15.5c3.7,4.5,6.8,9.9,6.7,15.7
	c-0.1,7.5-3.7,16.4-15.7,15c-5.1-0.6-9.9-3-13.7-6.5L176,151.9c0,0-16.7,14.2-2.3,46.9C173.7,198.8,193.4,245.7,251,228.8z"/>
<text transform="matrix(1 0 0 1 141.2965 468.2085)" class="st1 st2 st3">LOG</text>
</svg>
