<?xml version="1.0" encoding="utf-8"?>
<!-- Generator: Adobe Illustrator 27.7.0, SVG Export Plug-In . SVG Version: 6.00 Build 0)  -->
<svg version="1.1" id="Layer_2_00000049219463975868521510000008039878386849231746_"
	 xmlns="http://www.w3.org/2000/svg" xmlns:xlink="http://www.w3.org/1999/xlink" x="0px" y="0px" viewBox="0 0 512 512"
	 style="enable-background:new 0 0 512 512;" xml:space="preserve">
<style type="text/css">
	.st0{fill:none;stroke:#FFFFFF;stroke-width:15;stroke-linecap:round;stroke-linejoin:round;stroke-miterlimit:10;}
</style>
<path class="st0" d="M185.9,104.7V57.1c0-7.3,1.6-14.6,5.1-21.1c4.6-8.7,13.2-18,29.3-19.9c1.7-0.2,3.3-0.3,5-0.3h251
	c6.2,0,12.1,2.7,15.8,7.6c2.2,2.9,3.9,6.8,3.8,11.9v397.3c0,0.9,0,1.8,0.1,2.6c0.1,2.1-0.2,9.8-10.5,12.7L351,495.5
	c-5.9,2.1-12.3,2-18.1-0.3c-6.9-2.8-14.7-8.1-15.8-17.9c-0.1-0.8-0.1-1.6-0.1-2.3V84c0,0-0.4-7.3,4.8-14.8c3.2-4.6,8-8,13.3-9.8
	L459.4,17"/>
<path class="st0" d="M185.9,343.2l2.1,51.4c0.1,3.3,0.8,6.5,2,9.6c3.1,7.9,10.6,22.1,25.2,25.1c1.8,0.4,3.7,0.5,5.6,0.5h91.9"/>
<polyline class="st0" points="127.7,315.7 226.8,225.9 20,225.9 "/>
<line class="st0" x1="127.4" y1="132.7" x2="226.8" y2="225.9"/>
</svg>
