<?xml version="1.0" encoding="utf-8"?>
<!-- Generator: Adobe Illustrator 27.7.0, SVG Export Plug-In . SVG Version: 6.00 Build 0)  -->
<svg version="1.1" id="Layer_2_00000030476140610258872480000017791979567509282944_"
	 xmlns="http://www.w3.org/2000/svg" xmlns:xlink="http://www.w3.org/1999/xlink" x="0px" y="0px" viewBox="0 0 512 512"
	 style="enable-background:new 0 0 512 512;" xml:space="preserve">
<style type="text/css">
	.st0{fill:none;stroke:#FFFFFF;stroke-width:15;stroke-linecap:round;stroke-miterlimit:10;}
</style>
<path class="st0" d="M155.1,497.6H356c0,0,171.9-117.9,16.6-285.6l32.5-51.5c12.2-19.4,18.4-42,17-64.9c-1.6-25-12.3-53.6-47.9-70.1
	c-14.2-6.6-29.8-9.7-45.5-9.7h-149c-17.8,0-35.4,4.6-50.5,13.9C113.9,39.1,98.4,54.6,92.1,80c-5.7,22.8-2,46.8,9.5,67.3l33.9,60.5
	C135.5,207.8-16.8,355.4,155.1,497.6z"/>
<path class="st0" d="M173.9,74.2L332.4,75c14,0.1,26.6,9.5,29.8,23.1c1.2,5.2,1.1,11-1.5,17.2L321,177.6c0,0-65.8-34.4-130.4,0
	l-36.1-52.5c-5.6-8.2-8.3-18.2-6.9-28.1c1.1-8.4,5.2-17.2,16-21.1C166.9,74.7,170.4,74.2,173.9,74.2z"/>
</svg>
