<?xml version="1.0" encoding="utf-8"?>
<!-- Generator: Adobe Illustrator 27.7.0, SVG Export Plug-In . SVG Version: 6.00 Build 0)  -->
<svg version="1.1" id="Layer_2_00000119827629238552208680000009123982633615398834_"
	 xmlns="http://www.w3.org/2000/svg" xmlns:xlink="http://www.w3.org/1999/xlink" x="0px" y="0px" viewBox="0 0 512 512"
	 style="enable-background:new 0 0 512 512;" xml:space="preserve">
<style type="text/css">
	.st0{fill:none;stroke:#FFFFFF;stroke-width:15;stroke-linecap:round;stroke-linejoin:round;stroke-miterlimit:10;}
</style>
<path class="st0" d="M232.3,230.4c-36.4-10.3-63.1-43.8-63.1-83.5c0-47.9,38.8-86.7,86.7-86.7s86.7,38.8,86.7,86.7
	c0,40.1-27.2,73.9-64.2,83.8"/>
<path class="st0" d="M232.6,191.1c-14.9-8.5-24.9-24.4-24.9-42.8c0-27.2,22-49.2,49.2-49.2s49.2,22,49.2,49.2
	c0,20.1-9.1,37.4-26.4,45"/>
<circle class="st0" cx="137.3" cy="50.4" r="17"/>
<circle class="st0" cx="375.3" cy="50.4" r="17"/>
<circle class="st0" cx="389.2" cy="148.3" r="17"/>
<circle class="st0" cx="122.9" cy="148.3" r="17"/>
<path class="st0" d="M389.7,482.5H241.3c-4.4,0-7.9-3.5-7.9-7.9v-38.2c0-4.4,3.5-7.9,7.9-7.9h148.4c4.4,0,7.9,3.5,7.9,7.9v38.2
	C397.6,479,394.1,482.5,389.7,482.5z"/>
<path class="st0" d="M233.3,286V168c0-3.7,0.7-7.3,2.2-10.7c2.7-5.9,8.6-12.7,21.4-11.6c0,0,16.9-0.8,20.2,18.2
	c0.2,1.3,0.3,2.7,0.3,4.1v129.3"/>
<path class="st0" d="M277.6,252.6c0,0,0.3-21.3,25.9-18.9c0,0,18,2.1,18,18.7v50.1"/>
<path class="st0" d="M321.4,252.4c0,0,7.7-13.5,21.2-13.3c0,0,20.6-0.4,21.5,20.3c0,0-0.6,40.4-0.6,41.2"/>
<path class="st0" d="M364.7,264.9c0,0,7.7-13.5,21.2-13.3c0,0,20.1-0.4,21.4,19.5c0,0.5,0,1,0,1.5c-0.1,5.5-0.6,39.8-0.6,40.5V370
	c0,1.7-0.2,3.5-0.7,5.1c-3.2,11.3-17.5,54.3-51.3,53.5h-89.3c-5.9,0-11.5-2.8-15.1-7.5l0,0c-0.6-0.7-1.2-1.4-1.8-2.1
	c-5.4-5.3-31.1-31.2-35.7-47.5c0,0-11.5-39.2-22.8-52.3c-0.5-0.6-0.9-1.1-1.3-1.7c-2.4-3.6-11.2-16.9-17-27.6
	c-6.2-11.4,0.6-25.6,13.4-27.7c5.4-0.9,12.4-0.6,21.5,1.6c1.5,0.4,3,0.9,4.4,1.6c5.8,3,21.6,12.1,22.4,21.9"/>
<line class="st0" x1="166.7" y1="148.3" x2="141.3" y2="148.3"/>
<polyline class="st0" points="181.9,97.8 138.1,97.8 138.1,68.3 "/>
<polyline class="st0" points="329.2,99.1 374.1,99.1 374.1,70.1 "/>
<line class="st0" x1="343.7" y1="148.3" x2="370.3" y2="148.3"/>
</svg>
