<?xml version="1.0" encoding="utf-8"?>
<!-- Generator: Adobe Illustrator 27.7.0, SVG Export Plug-In . SVG Version: 6.00 Build 0)  -->
<svg version="1.1" id="Layer_1" xmlns="http://www.w3.org/2000/svg" xmlns:xlink="http://www.w3.org/1999/xlink" x="0px" y="0px"
	 viewBox="0 0 512 512" style="enable-background:new 0 0 512 512;" xml:space="preserve">
<style type="text/css">
	.st0{fill:#FFFFFF;}
</style>
<g id="Layer_1_copy_3">
	<path class="st0" d="M329.9,434.8c-0.1,2.9-1.8,5.5-4.5,6.9L227,493c-1.2,0.6-2.4,0.8-3.8,0.8c-11.6-0.4-7.5-14.8-8.2-22.1
		C88.8,448.9,3.1,330.6,20.7,203.5c0.6-4.5,4.8-7.6,9.2-7c3.6,0.5,6.5,3.4,7,7c1.5,10.7,3.8,21.2,7,31.5
		c23.7,79.4,89.7,139,171.2,154.3v-20.7c0-4.6,3.7-8.2,8.2-8.2c1.6,0,3.2,0.4,4.6,1.4l98.5,65.6C328.6,429,330,431.8,329.9,434.8
		L329.9,434.8z M297.1,40.3c-0.5-6.9,2.1-17.7-3.9-21c-2.4-1.5-5.5-1.6-8.1-0.2l-98.5,51.3c-4,2.1-5.5,7.1-3.4,11.2
		c0.6,1.2,1.6,2.2,2.7,3l98.5,65.6c3.8,2.4,8.9,1.4,11.4-2.3c0.8-1.3,1.3-2.9,1.4-4.5v-20.7c81.5,15.4,147.5,74.9,171.2,154.3
		c3.1,10.3,5.4,20.9,7,31.5c0.6,4.5,4.8,7.6,9.2,7c3.6-0.5,6.5-3.4,7-7c1.6-11.3,2.4-22.6,2.4-34C493.5,159.2,410.6,60.7,297.1,40.3
		L297.1,40.3z"/>
</g>
<g id="Layer_2_00000127021364666705435540000002304980740899657901_">
</g>
</svg>
