<?xml version="1.0" encoding="utf-8"?>
<!-- Generator: Adobe Illustrator 27.7.0, SVG Export Plug-In . SVG Version: 6.00 Build 0)  -->
<svg version="1.1" id="Layer_2_00000137834795179188751210000012752044344096963232_"
	 xmlns="http://www.w3.org/2000/svg" xmlns:xlink="http://www.w3.org/1999/xlink" x="0px" y="0px" viewBox="0 0 512 512"
	 style="enable-background:new 0 0 512 512;" xml:space="preserve">
<style type="text/css">
	.st0{fill:none;stroke:#FFFFFF;stroke-width:15;stroke-linecap:round;stroke-linejoin:round;stroke-miterlimit:10;}
	.st1{fill:#FFFFFF;stroke:#FFFFFF;stroke-miterlimit:10;}
</style>
<path class="st0" d="M469.4,468.9H40.1c-4.2,0-7.6-3.4-7.6-7.6v-20.9c0-4.2,3.4-7.6,7.6-7.6h429.3c4.2,0,7.6,3.4,7.6,7.6v20.9
	C477,465.5,473.6,468.9,469.4,468.9z"/>
<rect x="53.4" y="470.2" class="st0" width="34.5" height="31.9"/>
<rect x="424" y="470.2" class="st0" width="34.5" height="31.9"/>
<path class="st0" d="M164.7,196.1l-25,37.2c-1.2,1.7-1.8,3.8-1.8,5.8v161.5c0,5.8,4.7,10.4,10.4,10.4h217.3
	c5.8,0,10.4-4.7,10.4-10.4V239.1c0-2.1-0.6-4.2-1.8-5.9L349,196.1c-1.9-2.9-5.2-4.6-8.6-4.6h-167
	C169.9,191.5,166.7,193.3,164.7,196.1z"/>
<line class="st0" x1="140.3" y1="236.6" x2="374.1" y2="236.6"/>
<path class="st0" d="M237,239.2v25c0,2.9,2.9,4.8,5.6,3.7l11.8-5.2c1-0.5,2.2-0.4,3.3,0l11.7,5.5c2.6,1.2,5.7-0.7,5.7-3.6v-26.2"/>
<path class="st0" d="M237,409v-25c0-2.9,2.9-4.8,5.6-3.7l11.8,5.2c1,0.5,2.2,0.4,3.3,0l11.7-5.5c2.6-1.2,5.7,0.7,5.7,3.6v26.2"/>
<line class="st0" x1="237" y1="235.7" x2="241.3" y2="192.9"/>
<line class="st0" x1="274.7" y1="235.3" x2="269.5" y2="193.6"/>
<line class="st0" x1="223.7" y1="301.2" x2="289.9" y2="301.2"/>
<circle class="st0" cx="255.6" cy="83.8" r="67.4"/>
<line class="st0" x1="256" y1="189.3" x2="256" y2="152.6"/>
<line class="st0" x1="256" y1="82.2" x2="256" y2="45.4"/>
<circle class="st1" cx="207.5" cy="84" r="3.5"/>
<circle class="st1" cx="255.6" cy="132" r="3.5"/>
<circle class="st1" cx="304.1" cy="83.4" r="3.5"/>
</svg>
