<?xml version="1.0" encoding="utf-8"?>
<!-- Generator: Adobe Illustrator 27.2.0, SVG Export Plug-In . SVG Version: 6.00 Build 0)  -->
<svg version="1.1" id="Layer_2" xmlns="http://www.w3.org/2000/svg" xmlns:xlink="http://www.w3.org/1999/xlink" x="0px" y="0px"
	 viewBox="0 0 512 512" style="enable-background:new 0 0 512 512;" xml:space="preserve">
<style type="text/css">
	.st0{fill:none;stroke:#ffffff;stroke-width:13;stroke-miterlimit:10;}
</style>
<path class="st0" d="M90.1,300V277c0-5.1,4.2-9.3,9.3-9.3H405c5.1,0,9.3,4.2,9.3,9.3v23.6"/>
<path class="st0" d="M70.9,325.2h69.3c5.8,0,10.5,4.7,10.5,10.5v57.8c0,5.8-4.7,10.5-10.5,10.5H40c-5.8,0-10.5-4.7-10.5-10.5v-57.8
	c0-5.8,4.7-10.5,10.5-10.5h16.9"/>
<path class="st0" d="M24,430.3h132.1c2.8,0,5.1-2.3,5.1-5.1V409c0-2.8-2.3-5.1-5.1-5.1H24c-2.8,0-5.1,2.3-5.1,5.1v16.2
	C19,428.1,21.2,430.3,24,430.3z"/>
<path class="st0" d="M233,325.2h69.3c5.8,0,10.5,4.7,10.5,10.5v57.8c0,5.8-4.7,10.5-10.5,10.5H202.2c-5.8,0-10.5-4.7-10.5-10.5
	v-57.8c0-5.8,4.7-10.5,10.5-10.5H219"/>
<path class="st0" d="M186.2,430.3h132.1c2.8,0,5.1-2.3,5.1-5.1V409c0-2.8-2.3-5.1-5.1-5.1H186.2c-2.8,0-5.1,2.3-5.1,5.1v16.2
	C181.1,428.1,183.4,430.3,186.2,430.3z"/>
<path class="st0" d="M395.1,325.2h69.3c5.8,0,10.5,4.7,10.5,10.5v57.8c0,5.8-4.7,10.5-10.5,10.5H364.3c-5.8,0-10.5-4.7-10.5-10.5
	v-57.8c0-5.8,4.7-10.5,10.5-10.5h16.9"/>
<path class="st0" d="M348.3,430.3h132.1c2.8,0,5.1-2.3,5.1-5.1V409c0-2.8-2.3-5.1-5.1-5.1H348.3c-2.8,0-5.1,2.3-5.1,5.1v16.2
	C343.2,428.1,345.5,430.3,348.3,430.3z"/>
<path class="st0" d="M212.2,189.9h-27.4c-5.6,0-10.1-4.5-10.1-10.1v-112c0-5.6,4.5-10.1,10.1-10.1h152.4c5.6,0,10.1,4.5,10.1,10.1
	v112c0,5.6-4.5,10.1-10.1,10.1h-110"/>
<polyline class="st0" points="279.7,190.1 285.6,216 237.6,216 247.5,190.1 "/>
<line class="st0" x1="213.3" y1="217.1" x2="311.5" y2="217.1"/>
<line class="st0" x1="174.8" y1="154.3" x2="347.2" y2="154.3"/>
<line class="st0" x1="262.4" y1="228.2" x2="262.4" y2="300.6"/>
</svg>
