<?xml version="1.0" encoding="utf-8"?>
<!-- Generator: Adobe Illustrator 27.7.0, SVG Export Plug-In . SVG Version: 6.00 Build 0)  -->
<svg version="1.1" id="Layer_2_00000105412499384627953070000013895489419215390396_"
	 xmlns="http://www.w3.org/2000/svg" xmlns:xlink="http://www.w3.org/1999/xlink" x="0px" y="0px" viewBox="0 0 512 512"
	 style="enable-background:new 0 0 512 512;" xml:space="preserve">
<style type="text/css">
	.st0{fill:none;stroke:#2196F3;stroke-width:15;stroke-linecap:round;stroke-linejoin:round;stroke-miterlimit:10;}
</style>
<rect x="19.7" y="296.7" class="st0" width="473.9" height="96.4"/>
<line class="st0" x1="91.4" y1="190.5" x2="423.6" y2="190.5"/>
<polygon class="st0" points="51.9,190.5 91.4,141.2 91.4,236.8 "/>
<polygon class="st0" points="463,190.5 423.6,238.5 423.7,141.9 "/>
<line class="st0" x1="17.5" y1="109.4" x2="17.5" y2="260.7"/>
<line class="st0" x1="490.3" y1="109" x2="490.3" y2="263.9"/>
<line class="st0" x1="452.2" y1="329.2" x2="452.2" y2="296.7"/>
<line class="st0" x1="403.3" y1="345.5" x2="403.3" y2="296.7"/>
<line class="st0" x1="354.4" y1="329.2" x2="354.4" y2="296.7"/>
<line class="st0" x1="305.4" y1="345.5" x2="305.4" y2="296.7"/>
<line class="st0" x1="255.8" y1="329.2" x2="255.8" y2="296.7"/>
<line class="st0" x1="207.4" y1="344.8" x2="207.4" y2="297.1"/>
<line class="st0" x1="157.9" y1="329.2" x2="157.9" y2="297.1"/>
<line class="st0" x1="108.8" y1="345.4" x2="108.8" y2="295.8"/>
<line class="st0" x1="60.8" y1="329.2" x2="60.8" y2="297.1"/>
</svg>
