<?xml version="1.0" encoding="utf-8"?>
<!-- Generator: Adobe Illustrator 27.7.0, SVG Export Plug-In . SVG Version: 6.00 Build 0)  -->
<svg version="1.1" id="Layer_1" xmlns="http://www.w3.org/2000/svg" xmlns:xlink="http://www.w3.org/1999/xlink" x="0px" y="0px"
	 viewBox="0 0 512 512" style="enable-background:new 0 0 512 512;" xml:space="preserve">
<style type="text/css">
	.st0{fill:none;stroke:#2196F3;stroke-width:15;stroke-miterlimit:10;}
	.st1{fill:none;stroke:#2196F3;stroke-width:15;stroke-linecap:round;stroke-linejoin:round;stroke-miterlimit:10;}
</style>
<g id="Capa_1">
	<g>
		<g>
			<path class="st0" d="M493,270.3v-28.6c0-18.4-13.2-34.3-31.4-37.4l-26.4-4.6c-3.3-10.6-7.6-20.8-12.7-30.6l15.4-21.8
				c10.6-15.1,8.8-35.6-4.3-48.6l-20.2-20.2c-13.1-13.1-33.5-14.9-48.6-4.3L343,89.5c-9.8-5.1-20.1-9.4-30.6-12.7l-4.6-26.4
				C304.5,32.2,288.7,19,270.3,19h-28.6c-18.4,0-34.3,13.2-37.4,31.4l-4.6,26.4c-10.6,3.3-20.8,7.6-30.6,12.7l-21.8-15.4
				c-15.1-10.6-35.5-8.8-48.6,4.3L78.3,98.5C65.2,111.6,63.4,132,74,147.1L89.3,169c-5.1,9.8-9.4,20.1-12.7,30.6l-26.4,4.6
				c-18,3.3-31.2,19-31.2,37.5v28.6c0,18.4,13.2,34.2,31.4,37.4l26.4,4.6c3.3,10.6,7.6,20.8,12.7,30.6l-15.4,21.8
				c-10.6,15.1-8.8,35.5,4.3,48.6l20.2,20.2c13.1,13.1,33.5,14.8,48.6,4.3l21.8-15.4c9.8,5.1,20.1,9.4,30.6,12.7l4.6,26.4
				c3.1,18.1,19,31.4,37.4,31.4h28.6"/>
			<path class="st0" d="M270.3,468.9h-28.6c-6.8,0-12.5-4.8-13.7-11.5l-5.9-33.7c-0.8-4.6-4.2-8.3-8.7-9.5
				c-13.7-3.7-26.8-9.1-39.1-16.2c-4.1-2.3-9.2-2.1-13,0.6l-28,19.6c-5.6,3.9-13.1,3.2-17.8-1.6l-20.2-20.2
				c-4.8-4.7-5.5-12.3-1.6-17.8l19.6-28c2.7-3.8,3-8.9,0.6-13c-7-12.3-12.5-25.5-16.2-39.2c-1.2-4.5-4.9-8-9.5-8.7L54.5,284
				c-6.7-1.2-11.5-6.9-11.5-13.6v-28.6c0-6.8,4.8-12.5,11.5-13.7l33.7-5.9c4.6-0.8,8.3-4.2,9.5-8.7c3.7-13.7,9.1-26.8,16.2-39.1
				c2.3-4.1,2.1-9.2-0.6-13l-19.6-28c-3.9-5.6-3.2-13.1,1.6-17.8l20.2-20.2c4.7-4.8,12.3-5.5,17.8-1.6l28,19.6c3.8,2.7,8.9,3,13,0.6
				c12.3-7.1,25.5-12.6,39.2-16.2c4.5-1.2,8-4.9,8.7-9.5l5.9-33.7c1.2-6.7,6.9-11.5,13.6-11.5h28.6c6.8,0,12.5,4.8,13.7,11.5
				l5.9,33.7c0.8,4.6,4.2,8.3,8.7,9.5c13.7,3.7,26.8,9.1,39.1,16.2c4.1,2.3,9.2,2.1,13-0.6l28-19.6c5.6-3.9,13.1-3.2,17.8,1.6
				l20.2,20.2c4.8,4.7,5.5,12.3,1.6,17.8l-19.5,28c-2.7,3.8-3,8.9-0.6,13c7,12.3,12.5,25.5,16.2,39.1c1.2,4.5,4.9,8,9.5,8.7
				l33.7,5.9c6.7,1.2,11.5,6.9,11.5,13.6v28.6"/>
		</g>
	</g>
	<g>
		<g>
			<path class="st0" d="M458.8,381.4l-77-79.3c-10.1-10.3-15.1-24.5-13.8-38.9c5.6-63.2-41.2-119-104.4-124.4
				c-6.7-0.6-13.4-0.6-20.2,0c-5.3,0.5-10.2,2.7-14,6.4c-9.2,9-9.3,23.7-0.3,32.9l33.1,33.8c6.8,6.9,6.7,17.9-0.2,24.6l0,0
				l-25.6,25.2c-6.9,6.8-17.9,6.7-24.6-0.3l-33.1-33.8c-9-9.2-23.7-9.3-32.9-0.3c-3.8,3.7-6.1,8.6-6.7,13.8
				c-6.9,63,38.8,119.7,101.8,126.6c6.7,0.7,13.4,0.8,20.2,0.4c14.3-1,28.4,4.3,38.5,14.5l76.9,79.2"/>
		</g>
	</g>
	<path class="st1" d="M302.5,282L273,311.5c-2.4,2.4-6.4,2.4-8.9,0L253.5,301c-2.4-2.4-2.4-6.4,0-8.9l29.5-29.5
		c2.4-2.4,6.4-2.4,8.9,0l10.6,10.6C305,275.5,305,279.5,302.5,282z"/>
</g>
<g id="Layer_2_00000137852809204694563220000007025276005787493767_">
</g>
</svg>
