<?xml version="1.0" encoding="utf-8"?>
<!-- Generator: Adobe Illustrator 27.7.0, SVG Export Plug-In . SVG Version: 6.00 Build 0)  -->
<svg version="1.1" id="Layer_1" xmlns="http://www.w3.org/2000/svg" xmlns:xlink="http://www.w3.org/1999/xlink" x="0px" y="0px"
	 viewBox="0 0 512 512" style="enable-background:new 0 0 512 512;" xml:space="preserve">
<style type="text/css">
	.st0{fill:none;stroke:#2196F3;stroke-width:15;stroke-miterlimit:10;}
	.st1{fill:none;stroke:#2196F3;stroke-width:15;stroke-linecap:round;stroke-linejoin:round;stroke-miterlimit:10;}
</style>
<path class="st0" d="M323.9,434.5c-26.9,13.6-57.3,21.2-89.5,21.2c-110,0-199.2-89.4-199.2-199.7S124.4,56.4,234.4,56.4
	s199.2,89.4,199.2,199.7c0,21.1-3.3,41.4-9.3,60.5"/>
<ellipse class="st0" cx="235" cy="256.1" rx="103.8" ry="199.7"/>
<line class="st0" x1="232.6" y1="56.5" x2="232.6" y2="455.7"/>
<line class="st0" x1="35.2" y1="256.1" x2="433.5" y2="256.1"/>
<path class="st0" d="M381.4,121.3c0,0-125.9,84.1-296.6,2.9"/>
<path class="st0" d="M321.6,363.6c-53-15.6-137.3-24.4-236.8,22.9"/>
<circle class="st0" cx="400.4" cy="397.7" r="83.5"/>
<polyline class="st1" points="400.4,345 400.4,407.5 441.8,407.5 "/>
</svg>
