<?xml version="1.0" encoding="utf-8"?>
<!-- Generator: Adobe Illustrator 27.7.0, SVG Export Plug-In . SVG Version: 6.00 Build 0)  -->
<svg version="1.1" id="Layer_2_00000137130792403251617980000014077179475699468958_"
	 xmlns="http://www.w3.org/2000/svg" xmlns:xlink="http://www.w3.org/1999/xlink" x="0px" y="0px" viewBox="0 0 512 512"
	 style="enable-background:new 0 0 512 512;" xml:space="preserve">
<style type="text/css">
	.st0{fill:none;stroke:#2196F3;stroke-width:15;stroke-linecap:round;stroke-linejoin:round;stroke-miterlimit:10;}
</style>
<path class="st0" d="M78.9,200.4c0,0-48.9-8.7-64.2-30.7c-5.5-7.9-4.7-18.4,1.6-25.6c11.6-13.2,44.6-35.2,137-38.3
	c133-4.4,174.8,34.7,176.9,50.1c0,0,4.9,22.7-57.3,43.6c-12.9,4.3-26.3,7.1-39.9,8.5c-26.3,2.6-74.9,5-124.1-5"/>
<ellipse class="st0" cx="172.6" cy="156" rx="80.4" ry="26.4"/>
<path class="st0" d="M12.3,166.2v110c0,6.1,2.7,11.8,7.4,15.7c13.6,11,49.8,30.1,140.3,34.5h329.8c5.1,0,9.2-4.1,9.2-9.2v-99
	c0-5.1-4.1-9.2-9.2-9.2H222.6"/>
<line class="st0" x1="330.3" y1="206.9" x2="330.3" y2="157.9"/>
<line class="st0" x1="377.9" y1="234" x2="276.1" y2="234"/>
<line class="st0" x1="255.3" y1="234" x2="241.5" y2="234"/>
<line class="st0" x1="59.7" y1="247.9" x2="59.7" y2="311.1"/>
<line class="st0" x1="97.1" y1="279.5" x2="97.1" y2="316.9"/>
<line class="st0" x1="133.4" y1="261.4" x2="133.4" y2="324.6"/>
<line class="st0" x1="172.6" y1="287.1" x2="172.6" y2="324.4"/>
<line class="st0" x1="209.3" y1="262.3" x2="209.3" y2="325.5"/>
<line class="st0" x1="247.7" y1="288.2" x2="247.7" y2="325.5"/>
<line class="st0" x1="283.8" y1="261.2" x2="283.8" y2="324.5"/>
<line class="st0" x1="321.8" y1="287.1" x2="321.8" y2="324.4"/>
<line class="st0" x1="359.1" y1="261.2" x2="359.1" y2="324.5"/>
<line class="st0" x1="397.1" y1="287.1" x2="397.1" y2="324.4"/>
<line class="st0" x1="432.6" y1="261.2" x2="432.6" y2="324.5"/>
<line class="st0" x1="474.7" y1="288.3" x2="474.7" y2="325.7"/>
<polygon class="st0" points="491.2,381.3 457.6,406.8 457.6,358.9 "/>
<polygon class="st0" points="114.6,381.2 148.3,406.7 148.3,358.8 "/>
<line class="st0" x1="456.3" y1="381" x2="150.6" y2="381"/>
</svg>
