<?xml version="1.0" encoding="utf-8"?>
<!-- Generator: Adobe Illustrator 27.7.0, SVG Export Plug-In . SVG Version: 6.00 Build 0)  -->
<svg version="1.1" id="Layer_2_00000089551085666240859760000000537115365362066332_"
	 xmlns="http://www.w3.org/2000/svg" xmlns:xlink="http://www.w3.org/1999/xlink" x="0px" y="0px" viewBox="0 0 512 512"
	 style="enable-background:new 0 0 512 512;" xml:space="preserve">
<style type="text/css">
	.st0{fill:none;stroke:#2196F3;stroke-width:15;stroke-miterlimit:10;}
	.st1{fill:none;stroke:#2196F3;stroke-width:15;stroke-linecap:round;stroke-linejoin:round;stroke-miterlimit:10;}
</style>
<path class="st0" d="M53.2,371.5l-21.7,98.9c-2,9.1,4.9,17.7,14.3,17.7h418.7c9.2,0,16.1-8.5,14.3-17.5L458.5,370
	c-1.4-6.8-7.4-11.8-14.4-11.7L67.4,360C60.5,360.1,54.6,364.9,53.2,371.5z"/>
<path class="st0" d="M437,358.4H72.6v-12.7c0-7.2,5.9-13.1,13.1-13.1H424c7.2,0,13.1,5.9,13.1,13.1v12.7H437z"/>
<path class="st0" d="M381.3,330.3H127.4c-8.7,0-15.7-7-15.7-15.7V39.1c0-8.7,7-15.7,15.7-15.7h253.9c8.7,0,15.7,7,15.7,15.7v275.6
	C397,323.3,390,330.3,381.3,330.3z"/>
<path class="st0" d="M192.1,23.4v119.9c0,5.8,6,9.8,11.4,7.4L251,130c2.1-0.9,4.5-0.9,6.6,0l48.2,21.6c5.4,2.4,11.4-1.5,11.4-7.4
	V24.3"/>
<path class="st0" d="M204.4,293.2h-48.9c-4.8,0-8.8-3.9-8.8-8.8v-16.9c0-4.8,3.9-8.8,8.8-8.8h48.9c4.8,0,8.8,3.9,8.8,8.8v16.9
	C213.2,289.3,209.3,293.2,204.4,293.2z"/>
<path class="st0" d="M70.3,402.1l-8.7,39c-1.8,8,4.3,15.5,12.4,15.5h158.9c7,0,12.7-5.7,12.7-12.7v-39c0-7-5.7-12.7-12.7-12.7H82.8
	C76.8,392.1,71.6,396.2,70.3,402.1z"/>
<line class="st1" x1="311.2" y1="391.4" x2="328.8" y2="391.4"/>
<line class="st1" x1="358.7" y1="391.4" x2="376.3" y2="391.4"/>
<line class="st1" x1="406.5" y1="391.4" x2="424.1" y2="391.4"/>
<line class="st1" x1="311.2" y1="423.3" x2="328.8" y2="423.3"/>
<line class="st1" x1="358.7" y1="423.3" x2="376.3" y2="423.3"/>
<line class="st1" x1="406.5" y1="423.3" x2="424.1" y2="423.3"/>
<line class="st1" x1="311.2" y1="455.1" x2="328.8" y2="455.1"/>
<line class="st1" x1="358.7" y1="455.1" x2="376.3" y2="455.1"/>
<line class="st1" x1="406.5" y1="455.1" x2="424.1" y2="455.1"/>
</svg>
