<?xml version="1.0" encoding="utf-8"?>
<!-- Generator: Adobe Illustrator 27.8.1, SVG Export Plug-In . SVG Version: 6.00 Build 0)  -->
<svg version="1.1" id="Layer_1" xmlns="http://www.w3.org/2000/svg" xmlns:xlink="http://www.w3.org/1999/xlink" x="0px" y="0px"
	 viewBox="0 0 500 500" style="enable-background:new 0 0 500 500;" xml:space="preserve">
<style type="text/css">
	.st-logout-0{fill:none;stroke:#FFFFFF;stroke-width:27;stroke-linecap:round;stroke-linejoin:round;stroke-miterlimit:10;}
</style>
<path class="st-logout-0" d="M310.5,377.5v40c0,6.1-1.3,12.3-4.3,17.7c-3.9,7.3-11.1,15.1-24.6,16.7c-1.4,0.2-2.8,0.3-4.2,0.3H66.5
	c-5.2,0-10.2-2.3-13.3-6.4c-1.8-2.4-3.3-5.7-3.2-10V101.9c0-0.8,0-1.5-0.1-2.2c-0.1-1.8,0.2-8.2,8.8-10.7l113-40
	c5-1.8,10.3-1.7,15.2,0.3c5.8,2.4,12.4,6.8,13.3,15c0.1,0.7,0.1,1.3,0.1,1.9v328.6c0,0,0.3,6.1-4,12.4c-2.7,3.9-6.7,6.7-11.2,8.2
	L80.7,451"/>
<path class="st-logout-0" d="M310.5,177l-1.7-43.1c-0.1-2.8-0.7-5.5-1.7-8.1c-2.6-6.6-8.9-18.6-21.2-21.1c-1.5-0.3-3.1-0.4-4.7-0.4H204"/>
<polyline class="st-logout-0" points="366.6,353.9 449.9,278.5 276.1,278.5 "/>
<line class="st-logout-0" x1="366.3" y1="200.2" x2="449.9" y2="278.5"/>
</svg>
