<?xml version="1.0" encoding="utf-8"?>
<!-- Generator: Adobe Illustrator 27.8.1, SVG Export Plug-In . SVG Version: 6.00 Build 0)  -->
<svg version="1.1" id="Layer_1" xmlns="http://www.w3.org/2000/svg" xmlns:xlink="http://www.w3.org/1999/xlink" x="0px" y="0px"
	 viewBox="0 0 500 500" style="enable-background:new 0 0 500 500;" xml:space="preserve">
<style type="text/css">
	.st0-log-0{fill:#FFFFFF;}
</style>
<g>
	<g>
		<g>
			<path class="st0-log-0" d="M81.5,406.3V93.6c0-6.6,5.4-12,12-12h180.4v48.1c0,13.3,10.8,24.1,24.1,24.1h48.1v36.1h24.1v-48.1
				c0-3.2-1.2-6.3-3.5-8.5L294.5,61c-2.3-2.3-5.3-3.5-8.5-3.5H93.5c-19.9,0-36.1,16.2-36.1,36.1v312.7c0,19.9,16.2,36.1,36.1,36.1
				h276.7v-24.1H93.5C86.9,418.3,81.5,412.9,81.5,406.3z"/>
			<path class="st0-log-0" d="M418.3,298h-24.1v24.1h24.1v24.1h-48.1V274h72.2c0-13.3-10.8-24.1-24.1-24.1h-48.1
				c-13.3,0-24.1,10.8-24.1,24.1v72.2c0,13.3,10.8,24.1,24.1,24.1h48.1c13.3,0,24.1-10.8,24.1-24.1v-24.1
				C442.3,308.8,431.5,298,418.3,298z"/>
			<path class="st0-log-0" d="M286,249.9c-26.6,0-48.1,21.5-48.1,48.1v24.1c0,26.6,21.5,48.1,48.1,48.1s48.1-21.5,48.1-48.1V298
				C334.1,271.5,312.5,249.9,286,249.9z M310,322.1c0,13.3-10.8,24.1-24.1,24.1s-24.1-10.8-24.1-24.1V298
				c0-13.3,10.8-24.1,24.1-24.1S310,284.8,310,298V322.1z"/>
			<path class="st0-log-0" d="M177.7,249.9h-24.1v108.2c0,6.6,5.4,12,12,12h60.1V346h-48.1v-96.1H177.7z"/>
		</g>
	</g>
</g>
</svg>
