<?xml version="1.0" encoding="utf-8"?>
<!-- Generator: Adobe Illustrator 27.8.1, SVG Export Plug-In . SVG Version: 6.00 Build 0)  -->
<svg version="1.1" id="Layer_1" xmlns="http://www.w3.org/2000/svg" xmlns:xlink="http://www.w3.org/1999/xlink" x="0px" y="0px"
	 viewBox="0 0 500 500" style="enable-background:new 0 0 500 500;" xml:space="preserve">
<style type="text/css">
	.st0-menu-0{fill:#FFFFFF;}
</style>
<path class="st0-menu-0" d="M24.9,69.3l29.8,52.1c1,1.8,2.7,3,4.6,3.5l27.8,6.9l95.2,95.2l10.5-10.5l-96.7-96.7c-1-1-2.1-1.6-3.5-2
	L66,111.1L40.7,66.8l21.7-21.7l44.4,25.4l6.7,26.7c0.3,1.3,1,2.5,2,3.5l96.7,96.7l10.5-10.5l-95.2-95.2L120.6,64
	c-0.5-2-1.8-3.7-3.5-4.7L64.9,29.4c-2.9-1.7-6.6-1.2-8.9,1.2L26.2,60.3C23.8,62.7,23.3,66.3,24.9,69.3z"/>
<path class="st0-menu-0" d="M334.2,174.9L170.6,338.6L160,328.1l163.7-163.7L334.2,174.9z"/>
<path class="st0-menu-0" d="M141.9,344.4c-1.3-2.2-3.8-3.6-6.4-3.6H90.9c-2.6,0-5,1.4-6.4,3.6l-22.3,37.2c-1.4,2.4-1.4,5.3,0,7.7l22.3,37.2
	c1.3,2.2,3.8,3.6,6.4,3.6h44.6c2.6,0,5-1.4,6.4-3.6l22.3-37.2c1.4-2.4,1.4-5.3,0-7.7L141.9,344.4z M131.3,415.2H95.1l-17.9-29.8
	l17.9-29.8h36.2l17.9,29.8L131.3,415.2z"/>
<path class="st0-menu-0" d="M381,206.9c49.1,0.2,89.1-39.5,89.3-88.7c0-7.5-0.9-14.9-2.7-22.2c-1-4-5-6.4-9-5.4c-1.3,0.3-2.5,1-3.5,2
	l-46.3,46.3L372,126.6l-12.3-36.7L406,43.6c2.9-2.9,2.9-7.6,0-10.5c-1-1-2.2-1.6-3.5-2C355,19,306.6,47.9,294.5,95.5
	c-1.8,7.2-2.7,14.7-2.7,22.1c0,5.9,0.6,11.7,1.8,17.4L130.7,298c-5.7-1.2-11.6-1.8-17.4-1.8c-49.3,0-89.3,40-89.3,89.3
	s40,89.3,89.3,89.3s89.3-40,89.3-89.3c0-5.9-0.6-11.7-1.8-17.4l39-39l17.1,17.1c2.9,2.9,7.6,2.9,10.5,0l3.7-3.7
	c3.3-3.2,8.5-3.2,11.8,0s3.3,8.5,0,11.8l0,0l-3.7,3.7c-2.9,2.9-2.9,7.6,0,10.5l88.7,88.7c23.3,23.6,61.4,23.7,84.9,0.4
	c23.6-23.3,23.7-61.4,0.4-84.9c-0.1-0.1-0.3-0.3-0.4-0.4L364,283.5c-2.9-2.9-7.6-2.9-10.5,0l-3.7,3.7c-3.3,3.2-8.5,3.2-11.8,0
	s-3.3-8.5,0-11.8l0,0l3.7-3.7c2.9-2.9,2.9-7.6,0-10.5l-17.1-17.1l39-39C369.3,206.3,375.2,206.9,381,206.9z M410.3,459.8
	c-5.4,0-10.8-1-15.8-2.9l58.1-58.1c8.8,23.3-3,49.3-26.4,58.1C421.1,458.8,415.7,459.8,410.3,459.8z M326,266.5
	c-8.2,9.8-6.9,24.5,2.9,32.7c8.6,7.2,21.2,7.2,29.8,0l83.5,83.6c0.9,0.9,1.8,1.9,2.6,2.8l-63.6,63.6c-1-0.8-1.9-1.7-2.8-2.6
	L294.8,363c8.2-9.8,6.9-24.5-2.9-32.7c-8.6-7.2-21.2-7.2-29.9,0l-11.9-11.9l63.9-63.8L326,266.5z M356,191.7L187.3,360.4
	c-1.9,1.8-2.6,4.5-2,7.1c10.2,40.1-14,80.8-54.1,91s-80.8-14-91.1-54.1c-10.2-40.1,14-80.8,54.1-91.1c12.1-3.1,24.8-3.1,37,0
	c2.5,0.6,5.2-0.1,7.1-2L307,142.7c1.8-1.8,2.6-4.5,2-7.1c-10.1-39.6,13.8-79.9,53.4-90.1c7.5-1.9,15.2-2.6,22.9-2.2L346,82.6
	c-2,2-2.7,4.9-1.8,7.6l14.9,44.6c0.7,2.2,2.5,4,4.7,4.7l44.6,14.9c2.7,0.9,5.6,0.2,7.6-1.8l39.2-39.2c0.1,1.4,0.1,2.8,0.1,4.2
	c0.2,40.9-32.8,74.2-73.6,74.4c-6.3,0-12.6-0.7-18.7-2.3C360.5,189.1,357.8,189.8,356,191.7L356,191.7L356,191.7z"/>
<path class="st0-menu-0" d="M408.6,402.5L398.1,413l-74.4-74.4l10.5-10.5L408.6,402.5z"/>
</svg>
