<?xml version="1.0" encoding="utf-8"?>
<!-- Generator: Adobe Illustrator 27.7.0, SVG Export Plug-In . SVG Version: 6.00 Build 0)  -->
<svg version="1.1" id="Layer_2_00000041999081686201458450000006207082570196418945_"
	 xmlns="http://www.w3.org/2000/svg" xmlns:xlink="http://www.w3.org/1999/xlink" x="0px" y="0px" viewBox="0 0 512 512"
	 style="enable-background:new 0 0 512 512;" xml:space="preserve">
<style type="text/css">
	.st0{fill:none;stroke:#000000;stroke-width:15;stroke-linecap:round;stroke-linejoin:round;stroke-miterlimit:10;}
</style>
<path class="st0" d="M93.5,93.6c0,0-29.3,44.3-14.3,96.9c0,0-61.6,17.1-64.2,72.7c-1.7,35.3,19.2,68.2,52.3,80.6
	c12,4.5,26.3,6.8,43.2,4.1"/>
<path class="st0" d="M105.8,77.7c0,0,101.5-113.5,206.6,14.3c0,0,64.6-28,103.5,11.2c34.2,34.5,18.5,78.4,16.9,87.4
	c0,0,25.8,7.2,45.3,29.3c24.9,28.5,25.4,71.2,1.1,100.2c-13.6,16.2-36.6,29.9-75.5,27.9"/>
<path class="st0" d="M137.1,311.7c0,0,41.1-120.5,162.5-80.4c0,0,55.9,18.7,75.7,78c5.7,17.1,7.2,35.3,5.1,53.1
	c-2,17.1-7.3,40.8-20.6,57.5"/>
<path class="st0" d="M133.2,328.6c0,0-16.3,95,78.6,136.4c0,0,74.6,33.8,136.6-32.4"/>
<polyline class="st0" points="220.9,340.9 257.9,299.6 257.9,396.6 "/>
<path class="st0" d="M295,340.9"/>
<path class="st0" d="M294.6,340.9"/>
<line class="st0" x1="258.3" y1="299.6" x2="294.6" y2="340.3"/>
</svg>
