<?xml version="1.0" encoding="utf-8"?>
<!-- Generator: Adobe Illustrator 27.7.0, SVG Export Plug-In . SVG Version: 6.00 Build 0)  -->
<svg version="1.1" id="Layer_2_00000093881533785958983950000002592726646396322219_"
	 xmlns="http://www.w3.org/2000/svg" xmlns:xlink="http://www.w3.org/1999/xlink" x="0px" y="0px" viewBox="0 0 682.7 682.7"
	 style="enable-background:new 0 0 682.7 682.7;" xml:space="preserve">
<style type="text/css">
	.st0{fill:none;stroke:#000000;stroke-width:15;stroke-linecap:round;stroke-linejoin:round;stroke-miterlimit:10;}
</style>
<path class="st0" d="M429.6,42.2h-349c0,0-30.9-1.2-30.9,39.1v489.8c0,0,6.3,26.5,35.2,26.5H441c0,0,24-9.5,27.3-30l0.4-306.7"/>
<line class="st0" x1="126.9" y1="275" x2="390.6" y2="275"/>
<line class="st0" x1="126.9" y1="338.4" x2="390.6" y2="338.4"/>
<line class="st0" x1="126.9" y1="402.9" x2="390.6" y2="402.9"/>
<line class="st0" x1="126.9" y1="465.1" x2="390.6" y2="465.1"/>
<polyline class="st0" points="382.3,149.4 139.2,149.4 139.2,205.7 382.3,205.7 382.3,149.4 "/>
<line class="st0" x1="510.3" y1="113.6" x2="510.3" y2="227.3"/>
<line class="st0" x1="559.6" y1="255.9" x2="559.6" y2="338.4"/>
<path class="st0" d="M559.6,435.3v204c0,0-1.6,27.4-26.9,29H169.1c0,0-24.5-2.9-26.9-23.7v-44.4"/>
<circle class="st0" cx="508.7" cy="140.4" r="124.9"/>
<ellipse transform="matrix(0.3827 -0.9239 0.9239 0.3827 240.7679 521.3345)" cx="510.5" cy="80.5" rx="12.7" ry="12.7"/>
<circle cx="559.8" cy="389.6" r="13.3"/>
</svg>
