<?xml version="1.0" encoding="utf-8"?>
<!-- Generator: Adobe Illustrator 27.9.0, SVG Export Plug-In . SVG Version: 6.00 Build 0)  -->
<svg version="1.1" xmlns="http://www.w3.org/2000/svg" xmlns:xlink="http://www.w3.org/1999/xlink" x="0px" y="0px"
	 viewBox="0 0 512 512" style="enable-background:new 0 0 512 512;" xml:space="preserve">
<g id="Layer_1">
</g>
<g id="Layer_4">
	<g>
		<path d="M184.57,184.7c0-46.49,0-92.55,0-139.02c92.85,0,185.3,0,279.11,0c-2.15,2.34-3.59,3.98-5.12,5.54
			c-42.66,43.38-85.31,86.78-128.08,130.05c-1.87,1.89-4.95,3.64-7.47,3.66c-45.32,0.21-90.63,0.14-135.95,0.12
			C186.43,185.06,185.8,184.88,184.57,184.7z"/>
		<path d="M323.01,346.43c0,46.32,0,92.24,0,138.69c-92.73,0-185.29,0-279.14,0c8.31-8.47,15.83-16.16,23.37-23.82
			c36.58-37.17,73.13-74.36,109.82-111.42c1.87-1.89,4.91-3.73,7.41-3.74c45.34-0.21,90.68-0.15,136.02-0.12
			C321.12,346.01,321.73,346.21,323.01,346.43z"/>
		<path d="M35.05,476.05c0-93.17,0-185.4,0-278.27c45.57,0,91.11,0,137.19,0c0,2.3,0,4.39,0,6.48c0,42.56,0.07,85.11-0.15,127.67
			c-0.02,3-1.37,6.75-3.43,8.86c-42.99,43.97-86.17,87.75-129.33,131.55C38.22,473.47,36.93,474.43,35.05,476.05z"/>
		<path d="M472.46,54.71c0,93.52,0,185.78,0,278.53c-45.44,0-90.64,0-136.65,0c-0.09-1.87-0.26-3.9-0.26-5.93
			c-0.02-42.77-0.07-85.53,0.12-128.3c0.01-2.84,1.11-6.44,3.02-8.39c43.4-44.45,86.97-88.73,130.53-133.03
			C469.94,56.85,470.75,56.22,472.46,54.71z"/>
		<path d="M322.86,333.33c-46.23,0-92.09,0-138.32,0c0-45.26,0-90.11,0-135.53c46.07,0,92.11,0,138.32,0
			C322.86,243.01,322.86,288.04,322.86,333.33z"/>
		<path d="M171.9,184.78c-44.33,0-88.06,0-133.24,0c44.69-45.49,88.51-90.09,133.24-135.62C171.9,95.19,171.9,139.74,171.9,184.78z"
			/>
		<path d="M335.81,481.83c0-46.21,0-90.63,0-135.46c44.02,0,87.77,0,133.03,0C424.4,391.62,380.65,436.17,335.81,481.83z"/>
	</g>
</g>
</svg>
