<?xml version="1.0" encoding="utf-8"?>
<!-- Generator: Adobe Illustrator 27.7.0, SVG Export Plug-In . SVG Version: 6.00 Build 0)  -->
<svg version="1.1" id="Layer_2_00000140001100278452854850000011421278054610089905_"
	 xmlns="http://www.w3.org/2000/svg" xmlns:xlink="http://www.w3.org/1999/xlink" x="0px" y="0px" viewBox="0 0 512 512"
	 style="enable-background:new 0 0 512 512;" xml:space="preserve">
<style type="text/css">
	.st0{fill:none;stroke:#000000;stroke-width:15;stroke-linecap:round;stroke-linejoin:round;stroke-miterlimit:10;}
	.st1{fill:none;stroke:#000000;stroke-width:15;stroke-miterlimit:10;}
</style>
<polygon class="st0" points="39.3,164.5 39.3,361.5 213.8,462.5 390,361.5 390,163.8 214.6,61.6 "/>
<polyline class="st0" points="389.6,163.9 214.6,262 213.8,462.1 "/>
<line class="st0" x1="159.2" y1="231" x2="214.6" y2="262"/>
<line class="st0" x1="97.4" y1="196.8" x2="39.3" y2="164.5"/>
<line class="st0" x1="120.4" y1="208.2" x2="137.1" y2="217.8"/>
<g>
	<g>
		<line class="st1" x1="464.5" y1="187.2" x2="464.5" y2="336.4"/>
		<g>
			<path d="M464.5,151c-6.3,17-17.1,38.2-28.5,51.3l28.5-10.3l28.5,10.3C481.7,189.2,470.9,168.1,464.5,151z"/>
		</g>
		<g>
			<path d="M464.5,372.6c-6.3-17-17.1-38.2-28.5-51.3l28.5,10.3l28.5-10.3C481.7,334.4,470.9,355.6,464.5,372.6z"/>
		</g>
	</g>
</g>
</svg>
