<?xml version="1.0" encoding="utf-8"?>
<!-- Generator: Adobe Illustrator 27.8.1, SVG Export Plug-In . SVG Version: 6.00 Build 0)  -->
<svg version="1.1" id="Layer_1" xmlns="http://www.w3.org/2000/svg" xmlns:xlink="http://www.w3.org/1999/xlink" x="0px" y="0px"
	 viewBox="0 0 500 500" style="enable-background:new 0 0 500 500;" xml:space="preserve">
<style type="text/css">
	.st-config-calibration-0{fill:#FFFFFF;}
</style>
<g>
	<path class="st-config-calibration-0" d="M470.3,252.5c-2.5,3.2-5.8,4.1-9.8,4c-8.6-0.2-17.2-0.1-26.2-0.1c-2.5,48.2-20,89.7-54,123.7
		s-75.5,51.7-124,54.2c0,7,0,13.8,0,20.7c0,2.9,0.1,5.7-0.1,8.6c-0.3,4.1-2.8,6.7-6.4,6.7c-3.6,0-6.3-2.6-6.3-6.7
		c-0.2-8.3-0.1-16.6-0.1-25c0-1.3,0-2.5,0-4.2c-48.2-2.5-89.7-20-123.8-54s-51.7-75.4-54.2-124c-5.3,0-10.4,0-15.5,0
		c-4.4,0-8.9,0.1-13.3-0.1c-4.5-0.2-7.1-2.7-7.1-6.5s2.7-6.3,7.2-6.3c7.9-0.1,15.8,0,23.7,0c1.6,0,3.1,0,4.7,0
		c1.1-8.6,1.8-16.8,3.2-25c4.6-28.1,15.6-53.5,32.2-76.6c2.8-3.9,6.4-4.7,9.6-2.5c3.3,2.3,3.7,6.1,0.8,10.2
		c-14.5,20.2-24.4,42.4-29,66.9c-1.6,8.7-2.5,17.5-3.7,26.7c8.1,0,15.3,0,22.6,0c2.5-74.5,66.1-139.8,142.7-142.7
		c0-7.1,0-14.2,0-22.2c-7,0.8-14,1.2-20.8,2.3c-35.9,5.9-66.8,21.7-92.8,47.1c-1.5,1.5-3.3,2.9-5.3,3.5c-2.9,0.9-5.4-0.4-6.9-3.1
		c-1.6-2.9-1-5.7,1.4-7.8c6.9-6.2,13.7-12.7,21.1-18.3C170,79.6,203.8,67.8,241,65.7c0.7,0,1.4-0.1,2.8-0.2c0-5.2,0-10.3,0-15.4
		c0-3.7,0.2-7.5,0-11.2c-0.2-3.8,0.8-7,3.9-9.4c1.7,0,3.4,0,5.2,0c3.3,2.5,4.1,5.8,3.9,9.8s0,8,0,12c0,4.7,0,9.3,0,14.1
		c1.5,0.1,2.3,0.2,3.2,0.2c37.1,2.1,70.7,14,100.4,36.2c7.1,5.3,13.6,11.4,20.2,17.4c3,2.8,2.8,6.6,0.2,9.2c-2.4,2.4-6,2.4-9,0.1
		c-0.7-0.5-1.3-1.2-1.9-1.8c-25-23.4-53.9-38.7-87.3-45.1c-8.5-1.6-17.2-2.3-25.9-3.5c0,8.2,0,15.4,0,22.7
		c38.5,2.5,71.5,16.7,98.6,43.8c27.2,27.2,41.3,60.4,43.7,98.7c7.6,0,14.7,0,22.8,0c-1.2-9.1-2-17.9-3.6-26.6
		c-4.7-25-14.9-47.7-30-68.3c-3-4.1-2.7-7.8,0.6-10.2c3.1-2.3,6.8-1.4,9.6,2.4c17.1,23.2,28.3,49,33.1,77.5
		c1.4,8.3,2.1,16.7,3.2,25.4c8.7,0,17.5,0.1,26.2-0.1c3.8-0.1,7,0.8,9.4,3.9C470.3,249.1,470.3,250.8,470.3,252.5z M386.1,250
		c0.1-75.1-60.6-136-135.9-136.3c-75.2-0.3-136.4,60.7-136.5,136c-0.1,75.1,60.6,136,135.8,136.3C324.8,386.3,386,325.4,386.1,250z
		 M243.2,399c-38.7-2.5-71.7-16.7-98.7-43.8c-27.2-27.2-41.4-60.3-43.8-98.5c-7.6,0-14.7,0-21.8,0c1,89,79.6,163.9,164.3,164.1
		C243.2,413.6,243.2,406.5,243.2,399z M400.1,256.6c-11.9,84.5-59.4,132-143.7,143.4c0,5.9,0,12.4,0,18.8c0,0.7,0.2,1.4,0.3,2.5
		c47-2.7,86.8-20.6,118.7-54.9c28.8-30.8,43.7-67.6,45.9-109.9C413.6,256.6,406.5,256.6,400.1,256.6z"/>
</g>
<g>
	<path class="st-config-calibration-0" d="M249.4,331.8c-3.8-1.5-7.5-3.1-11.3-4.5c-19-7.4-38-14.8-57-22.2c-2.7-1-3-1.5-3-4.3c0-30.8,0-61.6,0-92.4
		c0-2.8,0.3-3.2,2.9-4.2c22.4-8.7,44.8-17.4,67.1-26.1c1.5-0.6,2.8-0.6,4.3,0c22.4,8.7,44.9,17.4,67.3,26.2c2.4,0.9,2.7,1.4,2.7,4
		c0,30.9,0,61.8,0,92.7c0,2.7-0.3,3.1-2.8,4.1c-22.4,8.7-44.8,17.4-67.2,26.1c-0.5,0.2-0.9,0.4-1.3,0.7
		C250.6,331.8,250,331.8,249.4,331.8z M183.3,210.8c0,0.6,0,1,0,1.3c0,29,0,58,0,87c0,1.1,0.4,1.5,1.4,1.9
		c20.5,7.9,41,15.9,61.5,23.9c0.4,0.2,0.9,0.3,1.6,0.5c0-0.7,0-1.2,0-1.7c0-28.8,0-57.6,0-86.4c0-1.2-0.4-1.7-1.5-2.2
		c-19.1-7.4-38.2-14.8-57.3-22.2C187.1,212.3,185.3,211.6,183.3,210.8z M317.4,210.9c-0.7,0.2-1.1,0.4-1.5,0.5
		c-20.5,7.9-40.9,15.9-61.4,23.8c-1.3,0.5-1.6,1.1-1.6,2.4c0,28.7,0,57.4,0,86.1c0,0.5,0,1.1,0,1.8c0.7-0.2,1.3-0.4,1.8-0.6
		c20.4-7.9,40.7-15.8,61.1-23.7c1.2-0.5,1.6-1,1.6-2.4c0-28.7,0-57.4,0-86.1C317.4,212.2,317.4,211.6,317.4,210.9z M222.8,193.5
		c0.5,0.2,0.7,0.3,0.9,0.4c20.2,7.8,40.4,15.7,60.5,23.5c0.6,0.2,1.4,0.2,2,0c8.4-3.2,16.9-6.5,25.3-9.8c0.3-0.1,0.6-0.3,1.1-0.6
		c-0.4-0.2-0.7-0.3-0.9-0.4c-20.1-7.8-40.3-15.6-60.4-23.4c-0.6-0.2-1.5-0.2-2.1,0.1c-7.6,2.9-15.3,5.9-22.9,8.9
		C225.2,192.6,224,193,222.8,193.5z M188,207c0.6,0.3,0.8,0.4,1.1,0.5c20,7.8,40.1,15.6,60.1,23.3c0.7,0.3,1.7,0.2,2.4,0
		c8.4-3.2,16.7-6.4,25-9.7c0.3-0.1,0.7-0.3,1.2-0.6c-0.4-0.2-0.5-0.3-0.7-0.3c-20.2-7.9-40.4-15.7-60.7-23.5c-0.6-0.2-1.4-0.1-2,0.1
		c-5.4,2-10.8,4.2-16.2,6.2C194.9,204.3,191.6,205.6,188,207z"/>
</g>
</svg>
