<?xml version="1.0" encoding="utf-8"?>
<!-- Generator: Adobe Illustrator 27.8.1, SVG Export Plug-In . SVG Version: 6.00 Build 0)  -->
<svg version="1.1" id="Layer_1" xmlns="http://www.w3.org/2000/svg" xmlns:xlink="http://www.w3.org/1999/xlink" x="0px" y="0px"
	 viewBox="0 0 500 500" style="enable-background:new 0 0 500 500;" xml:space="preserve">
<style type="text/css">
	.st-config-measure-0{fill:#FFFFFF;}
</style>
<path class="st-config-measure-0" d="M332.5,263.9c9.8-6.8,18.8-14.8,26.8-24c3.8-4.3,5.5-10.1,4.8-15.8s-3.8-10.8-8.6-14.1
	c-8.5-5.8-19.9-4.4-26.7,3.4c-3.6,4.1-7.4,7.9-11.5,11.3l-18.6-48c5-8.4,7.7-18.1,7.8-28.1c0.2-24.5-15.2-45.6-36.9-53.7l0.5-51.8
	c0.1-10.8-8.6-19.7-19.4-19.8c-5.2-0.1-10.2,1.9-13.9,5.6s-5.8,8.6-5.9,13.8l-0.5,52.1c-21.5,7.9-37,28.4-37.2,52.6
	c-0.1,10.5,2.6,20.5,7.8,29.3L182.3,225c-4.6-3.8-8.8-8-12.7-12.6c-6.7-7.8-18.1-9.4-26.7-3.7c-4.8,3.2-8,8.3-8.7,14
	c-0.8,5.7,0.9,11.5,4.6,15.8c8.4,9.8,17.9,18.4,28.4,25.6L99.6,438.7c-0.8,2.1-0.4,4.5,1.1,6.2c0.3,0.4,2.8,2.9,7.3,4.2l-3.8,20.5
	c-0.5,2.8,1,5.7,3.7,6.7c0.7,0.3,1.4,0.4,2.2,0.4c2,0,4-1,5.1-2.9l13.8-22.5c0.2-0.3,0.4-0.6,0.5-1l2.8-7.3c6.3-4.2,13-10.4,20-18.4
	c0.5-0.5,0.8-1.1,1.1-1.8l53.9-139.3c13.1,4,26.8,6.1,40.8,6.3c0.5,0,1,0,1.5,0c14.6,0,29-2.2,42.7-6.4l54,139.4
	c0.3,0.6,0.6,1.2,1.1,1.8c7,8.1,13.7,14.2,20,18.4l2.8,7.3c0.1,0.3,0.3,0.7,0.5,1l13.8,22.5c1.1,1.8,3.1,2.9,5.1,2.9
	c0.7,0,1.5-0.1,2.2-0.4c2.7-1,4.3-3.9,3.7-6.7l-3.8-20.5c4.6-1.3,7-3.8,7.3-4.2c1.5-1.7,2-4.1,1.1-6.2L332.5,263.9z M357.1,417.5
	l-53.4-138.1l-2.2-5.6l-2.2-5.6l-5.9-15.3l-2.2-5.6l-2.2-5.6l-16.2-41.9c6.1-2.7,11.8-6.5,16.7-11.4c0.2-0.2,0.4-0.4,0.6-0.7
	l17.1,44.3l2.2,5.7l2.2,5.7l6,15.5l2.2,5.7l2.2,5.7l48,124l16.8,43.3c-0.4,0-0.8,0-1.3,0c-1-0.1-2.3-0.3-3.9-0.8
	c-3.2-1.1-7.7-3.4-13.4-8.3c-3.1-2.6-6.5-6-10.4-10.2C357.6,418.1,357.4,417.8,357.1,417.5z M248.3,277.8c-12.5-0.1-24.8-2-36.6-5.5
	l5.9-15.3c9.9,2.8,20.3,4.3,30.8,4.4c0.4,0,0.8,0,1.2,0c11.1,0,22-1.6,32.4-4.6l5.9,15.3C275.2,276,261.9,277.9,248.3,277.8z
	 M196.1,279.5l-53.4,137.9c-0.3,0.3-0.6,0.6-0.9,1c-3.8,4.3-7.3,7.6-10.4,10.2c-5.7,4.9-10.2,7.2-13.4,8.3c-1.6,0.5-2.9,0.7-3.9,0.8
	c-0.5,0-0.9,0-1.3,0l16.8-43.3l47.9-123.8l2.2-5.7l2.2-5.7l6-15.5l2.2-5.7l2.2-5.7l17.2-44.5c5.1,5.1,10.9,9.2,17.3,12l-16.3,42
	l-2.2,5.6l-2.2,5.6l-5.9,15.3l-2.2,5.6L196.1,279.5z M146.1,224.4c0.3-2.3,1.6-4.4,3.5-5.7c3.5-2.3,8.1-1.7,10.8,1.5
	c5.2,6.1,11,11.7,17.3,16.5l-6.1,15.9c-8.7-6.2-16.6-13.6-23.7-21.8C146.4,229,145.8,226.7,146.1,224.4z M205.2,147.6
	c0.2-16.1,8.9-30.2,21.8-37.9c1.1-0.6,2.2-1.2,3.3-1.8c1.3-0.6,2.5-1.2,3.9-1.7c0.7-0.3,1.4-0.5,2.2-0.8c2-0.6,4-1.1,6-1.5
	c2.5-0.4,5-0.7,7.6-0.7c0.2,0,0.3,0,0.5,0c2.5,0,4.9,0.3,7.3,0.7c2,0.4,4,0.8,6,1.5c0.7,0.2,1.4,0.5,2.1,0.7
	c1.3,0.5,2.6,1.1,3.9,1.7c1.1,0.5,2.2,1.1,3.2,1.8c13.2,7.9,21.9,22.4,21.8,38.8c0,4.3-0.7,8.5-1.9,12.5c-0.8,2.8-2,5.5-3.3,8
	c-1.2,2.2-2.5,4.3-4,6.2c-1.3,1.6-2.7,3.2-4.2,4.7c-3.7,3.7-8,6.6-12.6,8.7c-1.8,0.8-3.7,1.5-5.6,2.1s-3.9,1-5.9,1.4
	c-2.5,0.4-5,0.6-7.6,0.6c-2.3,0-4.5-0.2-6.7-0.6c-2-0.3-4-0.8-5.9-1.4c-1.9-0.6-3.8-1.3-5.6-2.1c-4.9-2.2-9.4-5.4-13.3-9.3
	c-1.3-1.3-2.4-2.7-3.5-4.1c-1.5-2-2.9-4-4-6.2c-1.4-2.6-2.5-5.3-3.3-8C205.8,156.7,205.1,152.2,205.2,147.6z M242.9,42.8
	c0-2,0.8-3.9,2.3-5.4c1.4-1.4,3.3-2.2,5.3-2.2h0.1c4.2,0,7.6,3.5,7.6,7.7l-0.5,48.9c-2.4-0.3-4.8-0.5-7.3-0.6c-2.7,0-5.4,0.2-8,0.5
	L242.9,42.8z M261.4,203.5l16.3,42.1c-9.4,2.6-19.2,3.9-29.1,3.8c-9.1-0.1-18-1.4-26.5-3.7l16.3-42.2c3.6,0.7,7.2,1.1,11,1.2
	c0.2,0,0.4,0,0.6,0C253.8,204.7,257.7,204.3,261.4,203.5z M348.7,219.9c1.9,1.3,3.2,3.4,3.5,5.7s-0.4,4.6-2,6.4
	c-6.7,7.7-14.2,14.5-22.2,20.3l-6.1-15.9c5.8-4.5,11.1-9.6,16-15.2C340.6,218.1,345.3,217.5,348.7,219.9z"/>
</svg>
