<?xml version="1.0" encoding="UTF-8"?>
<svg id="Layer_1" data-name="Layer 1" xmlns="http://www.w3.org/2000/svg" viewBox="0 0 512 512">
  <defs>
    <style>
      .cls-1 {
        fill: #fff;
        stroke-width: 0px;
      }
    </style>
  </defs>
  <path class="cls-1" d="m392.91,446.73c-12.81,11.03-25.23,21.62-37.51,32.37-4.05,3.54-8.22,5.93-13.52,3.27-5.29-2.66-5.87-7.48-5.58-12.8.7-12.75,1.18-25.51,1.78-39.08-2.36,1.02-3.99,1.73-5.62,2.43-124.59,53.6-266.83-22.25-291.26-155.32C19.89,161.51,97.28,51.25,214.12,31.23c110.79-18.99,218.93,55.37,241.03,165.61,4.66,23.26,5.31,46.58,2.7,70.09-.23,2.06.29,4.65,1.44,6.34,23.46,34.6,19.15,77.47-10.7,106.65-1.52,1.48-2.61,4.26-2.54,6.38.96,27.97,2.1,55.93,3.35,83.89.23,5.23-.54,9.78-5.64,12.25-5.08,2.46-9.17.32-13.11-3.14-12.39-10.86-24.93-21.54-37.74-32.58Zm-75.23-94.98c-2.13.62-3.88,1.08-5.6,1.63-16.94,5.47-33.82,11.12-50.85,16.3-3.25.99-7.33,1.01-10.56-.01-33.95-10.72-67.8-21.73-101.67-32.68-6.36-2.05-7.76-3.89-7.76-10.41-.02-47-.02-93.99,0-140.99,0-6.64,1.38-8.53,7.6-10.53,34.04-10.99,68.05-22.03,102.16-32.81,3.08-.97,7-.97,10.09,0,34.1,10.77,68.12,21.83,102.15,32.82,6.17,1.99,7.54,3.9,7.55,10.58.02,16.83,0,33.66,0,50.5v5.86c26.82-6.78,50.88-1.74,72.97,14.69,2.17-19.73.84-38.61-3.16-57.23-22.73-105.79-123.11-172.4-229.62-152.56C103.14,67,32,176.69,57.52,283.51c21.33,89.27,98.7,151.08,190.37,151.86,30.65.26,59.78-6.56,87.25-20.19,1.6-.8,3.51-2.84,3.64-4.43.69-8.46.94-16.97,1.13-25.46.03-1.46-.54-3.41-1.55-4.35-8.79-8.17-15.58-17.73-20.67-29.2Zm141.78-31.35c.03-36.67-29.66-66.41-66.36-66.47-36.94-.06-66.91,29.76-66.88,66.55.03,36.57,29.86,66.45,66.44,66.55,36.85.1,66.77-29.74,66.8-66.63Zm-214.94,31.82c.24-1.1.38-1.42.38-1.74.02-41.81-.02-83.61.15-125.42.01-3.55-1.98-4.07-4.37-4.83-26.59-8.56-53.18-17.12-79.77-25.66-1.47-.47-3-.76-4.53-1.14-.16.82-.27,1.15-.27,1.47-.02,41.81.01,83.61-.13,125.42-.01,3.09,1.42,3.91,3.82,4.68,18.85,6,37.68,12.07,56.52,18.13,9.31,2.99,18.61,6.01,28.21,9.1Zm67.77-14.42c0-10.23-1.11-19.84.21-29.1,3.7-25.97,17.39-45.62,40.07-58.96,1.38-.81,3.21-2.46,3.22-3.74.21-17.46.14-34.92.14-52.81-2.03.61-3.61,1.05-5.17,1.55-28.66,9.19-57.3,18.46-86,27.51-3.78,1.19-5.11,2.79-5.09,6.91.19,39.98.11,79.96.11,119.95v5.58c18.14-5.83,35.5-11.42,52.5-16.89Zm26.39-154.85c-1.92-.72-2.5-.97-3.09-1.17-25.62-8.28-51.22-16.6-76.89-24.72-2-.63-4.58-.33-6.65.32-18.06,5.71-36.07,11.6-54.09,17.44-7.77,2.52-15.55,5.02-23.86,7.7,1.04.75,1.39,1.15,1.82,1.29,25.77,8.34,51.54,16.7,77.36,24.89,1.88.6,4.3.31,6.25-.28,9.07-2.73,18.07-5.7,27.08-8.62,16.89-5.46,33.77-10.93,52.08-16.87Zm12.9,278.97c1.22-.51,1.56-.56,1.78-.76,10.24-8.79,20.47-17.59,30.71-26.38,6.84-5.87,10.72-5.92,17.43-.17,9.36,8.02,18.68,16.09,28.03,24.13,1.28,1.1,2.62,2.11,4.75,3.82-1.02-24.03-1.99-46.75-2.99-70.18-25.86,12.59-51.06,12.54-76.84,0-.98,23.53-1.92,46.23-2.88,69.52Z"/>
  <path class="cls-1" d="m382.47,331.71c13.43-13.42,26.83-26.82,40.24-40.22,1.18-1.18,2.3-2.43,3.59-3.47,3.35-2.71,6.85-2.66,9.89.3,3.06,2.97,3.03,6.5.62,9.94-.76,1.08-1.78,1.97-2.72,2.91-14.94,14.97-29.87,29.94-44.82,44.9-5.69,5.69-8.58,5.69-14.19,0-7.95-8.07-15.88-16.15-23.8-24.23-4.61-4.7-5.18-8.65-1.79-12.13,3.42-3.51,7.72-2.83,12.51,1.9,6.74,6.65,13.51,13.26,20.48,20.09Z"/>
</svg>