<?xml version="1.0" encoding="UTF-8"?>
<svg id="Layer_1" data-name="Layer 1" xmlns="http://www.w3.org/2000/svg" viewBox="0 0 512 512">
  <defs>
    <style>
      .cls-1 {
        fill: #fff;
        stroke-width: 0px;
      }
    </style>
  </defs>
  <path class="cls-1" d="m384.73,286.13h34.86c3.61,0,6.54-2.92,6.54-6.53s-2.93-6.54-6.54-6.54h-34.86c-3.61,0-6.53,2.92-6.53,6.54s2.92,6.53,6.53,6.53Z"/>
  <path class="cls-1" d="m384.73,329.72h34.86c3.61,0,6.54-2.92,6.54-6.53s-2.93-6.54-6.54-6.54h-34.86c-3.61,0-6.53,2.92-6.53,6.54s2.92,6.53,6.53,6.53Z"/>
  <path class="cls-1" d="m384.73,373.31h34.86c3.61,0,6.54-2.93,6.54-6.54s-2.93-6.54-6.54-6.54h-34.86c-3.61,0-6.53,2.93-6.53,6.54s2.92,6.54,6.53,6.54Z"/>
  <path class="cls-1" d="m349.83,286.1c1.74,0,3.48-.69,4.62-1.92,1.22-1.21,1.91-2.87,1.91-4.61s-.69-3.41-1.91-4.63c-2.35-2.35-6.71-2.44-9.24,0-1.22,1.22-1.91,2.97-1.91,4.63s.69,3.4,1.91,4.61c1.23,1.23,2.97,1.92,4.63,1.92Z"/>
  <path class="cls-1" d="m349.83,329.76c1.74,0,3.4-.69,4.62-2.01,1.22-1.13,1.91-2.88,1.91-4.53,0-1.74-.69-3.48-1.91-4.7-2.44-2.44-6.8-2.44-9.24,0-1.22,1.22-1.91,2.97-1.91,4.7s.69,3.4,1.91,4.53c1.23,1.32,2.97,2.01,4.63,2.01Z"/>
  <path class="cls-1" d="m349.83,373.34c1.74,0,3.48-.78,4.62-1.91,1.22-1.23,1.91-2.98,1.91-4.63,0-1.75-.69-3.4-1.83-4.62-2.44-2.45-6.79-2.53-9.33,0-1.22,1.22-1.91,2.87-1.91,4.62,0,1.65.69,3.31,1.91,4.63,1.23,1.21,2.97,1.91,4.63,1.91Z"/>
  <path class="cls-1" d="m314.96,286.1c1.74,0,3.48-.69,4.62-1.92,1.22-1.21,1.91-2.87,1.91-4.61s-.69-3.41-1.91-4.63c-2.44-2.35-6.71-2.44-9.23,0-1.22,1.22-1.92,2.97-1.92,4.63s.7,3.4,1.92,4.61c1.22,1.32,2.87,1.92,4.62,1.92Z"/>
  <path class="cls-1" d="m314.96,329.76c1.74,0,3.4-.69,4.62-2.01,1.22-1.13,1.91-2.88,1.91-4.53,0-1.74-.69-3.48-1.91-4.7-2.44-2.44-6.8-2.44-9.23,0-1.22,1.22-1.92,2.97-1.92,4.7s.7,3.4,1.92,4.53c1.22,1.32,2.96,2.01,4.62,2.01Z"/>
  <path class="cls-1" d="m314.96,373.34c1.74,0,3.48-.78,4.62-1.91,1.22-1.23,1.91-2.98,1.91-4.63,0-1.75-.69-3.48-1.91-4.62-2.35-2.45-6.71-2.53-9.23,0-1.22,1.22-1.92,2.87-1.92,4.62,0,1.65.7,3.31,1.92,4.63,1.22,1.21,2.96,1.91,4.62,1.91Z"/>
  <path class="cls-1" d="m88.39,373.29h174.31c3.61,0,6.54-2.93,6.54-6.54v-87.15c0-3.62-2.93-6.54-6.54-6.54H88.39c-3.62,0-6.54,2.92-6.54,6.54v87.15c0,3.61,2.92,6.54,6.54,6.54Zm6.53-87.16h161.24v74.09H94.92v-74.09Z"/>
  <path class="cls-1" d="m463.17,229.48h-137.27v-39.22h111.12c2.3,0,4.42-1.21,5.61-3.18l26.15-43.59c1.21-2.02,1.25-4.54.09-6.57-1.17-2.05-3.34-3.33-5.7-3.33H44.82c-2.35,0-4.53,1.27-5.7,3.33-1.15,2.04-1.12,4.56.09,6.57l26.15,43.59c1.18,1.97,3.31,3.18,5.61,3.18h111.12v39.22H44.82c-3.61,0-6.54,2.93-6.54,6.54v174.31c0,3.61,2.93,6.54,6.54,6.54h19.61v28.33c0,3.61,2.93,6.54,6.54,6.54h69.72c3.62,0,6.54-2.93,6.54-6.54v-28.33h213.54v28.33c0,3.61,2.92,6.54,6.53,6.54h69.73c3.61,0,6.54-2.93,6.54-6.54v-28.33h19.61c3.62,0,6.54-2.93,6.54-6.54v-174.31c0-3.61-2.92-6.54-6.54-6.54Zm-388.51-52.3l-18.3-30.51h395.26l-18.31,30.51H74.66Zm238.17,13.08v39.22h-117.67v-39.22h117.67Zm-178.67,248.39h-56.66v-21.79h56.66v21.79Zm296.33,0h-56.65v-21.79h56.65v21.79Zm26.16-34.86H51.35v-161.23h405.29v161.23Z"/>
</svg>