<?xml version="1.0" encoding="UTF-8"?>
<svg id="Layer_1" data-name="Layer 1" xmlns="http://www.w3.org/2000/svg" viewBox="0 0 512 512">
  <defs>
    <style>
      .cls-1 {
        fill: #fff;
        stroke-width: 0px;
      }
    </style>
  </defs>
  <g id="mobile_apps_cloud_install_syncing" data-name="mobile, apps, cloud, install, syncing">
    <g>
      <path class="cls-1" d="m416.6,314.4h-116.8c-4.03,0-7.3-3.27-7.3-7.3s3.27-7.3,7.3-7.3h116.8c24.15,0,43.8-19.65,43.8-43.8s-19.65-43.8-43.8-43.8c-.18.03-2.53.31-2.7.31-2.5.26-4.67-.86-6.16-2.72-1.49-1.84-1.99-4.31-1.33-6.58,1.91-6.7,2.89-13.51,2.89-20.21,0-40.25-32.75-73-73-73-11.26,0-22.15,2.58-32.38,7.65-1.85.91-4.01.99-5.94.25-1.93-.77-3.43-2.31-4.15-4.26-13.71-37.1-49.45-62.04-88.93-62.04-11.1,0-21.94,1.9-32.28,5.64-3.78,1.33-7.97-.6-9.34-4.39s.6-7.97,4.38-9.36c11.93-4.31,24.46-6.48,37.24-6.48,42.95,0,82.08,25.58,99.67,64.4,10.15-3.99,20.79-6,31.73-6,48.31,0,87.6,39.29,87.6,87.6,0,4.95-.44,9.94-1.31,14.91,29.4,3.01,52.41,27.92,52.41,58.09,0,32.21-26.19,58.4-58.4,58.4Zm-284.7,0h-21.9c-40.25,0-73-32.75-73-73,0-36.02,26.1-65.99,60.88-71.76-1.65-7.62-2.48-15.37-2.48-23.14,0-22.97,7.02-44.94,20.34-63.57,2.34-3.27,6.89-4.02,10.18-1.69,3.28,2.35,4.04,6.92,1.69,10.19-11.52,16.12-17.61,35.17-17.61,55.07,0,9.24,1.36,18.45,4.06,27.4.64,2.15.26,4.48-1.04,6.32s-3.37,2.96-5.62,3.07c-31.29,1.4-55.8,26.92-55.8,58.11s26.19,58.4,58.4,58.4h21.9c4.03,0,7.3,3.27,7.3,7.3s-3.27,7.3-7.3,7.3Z"/>
      <path class="cls-1" d="m307.1,475h-116.8c-20.12,0-36.5-16.37-36.5-36.5V175.7c0-20.13,16.38-36.5,36.5-36.5h116.8c20.12,0,36.5,16.37,36.5,36.5v102.23c0,4.03-3.27,7.3-7.3,7.3s-7.3-3.27-7.3-7.3v-102.23c0-12.07-9.83-21.9-21.9-21.9h-116.8c-12.07,0-21.9,9.83-21.9,21.9v262.8c0,12.07,9.83,21.9,21.9,21.9h116.8c12.07,0,21.9-9.83,21.9-21.9v-131.4c0-4.03,3.27-7.3,7.3-7.3s7.3,3.27,7.3,7.3v131.4c0,20.13-16.38,36.5-36.5,36.5Z"/>
      <path class="cls-1" d="m143.8,71.78c-2.15,0-4.26-.91-5.68-2.67-2.53-3.14-2.18-7.61.98-10.13.09-.06.32-.25.41-.31,3.21-2.38,7.77-1.77,10.19,1.39,2.41,3.15,1.94,7.61-1.15,10.09-1.39,1.1-3.07,1.64-4.74,1.64Z"/>
      <g>
        <path class="cls-1" d="m248.7,402c-4.03,0-7.3-3.27-7.3-7.3v-58.4c0-20.13,16.38-36.5,36.5-36.5h29.2c4.03,0,7.3,3.27,7.3,7.3s-3.27,7.3-7.3,7.3h-29.2c-12.07,0-21.9,9.83-21.9,21.9v58.4c0,4.03-3.27,7.3-7.3,7.3Z"/>
        <path class="cls-1" d="m248.7,402c-1.87,0-3.74-.72-5.17-2.13l-21.9-21.9c-2.85-2.85-2.85-7.48,0-10.32s7.48-2.85,10.32,0l16.73,16.73,16.73-16.73c2.85-2.85,7.48-2.85,10.32,0s2.85,7.48,0,10.32l-21.9,21.9c-1.4,1.42-3.27,2.13-5.14,2.13h0Z"/>
      </g>
    </g>
    <g>
      <path class="cls-1" d="m394.7,372.07c-4.03,0-7.3-2.54-7.3-6.57v-1.46c0-4.03,3.27-7.3,7.3-7.3s7.3,3.27,7.3,7.3-3.27,8.03-7.3,8.03h0Z"/>
      <path class="cls-1" d="m394.7,401.27c-4.03,0-7.3-2.54-7.3-6.57v-1.46c0-4.03,3.27-7.3,7.3-7.3s7.3,3.27,7.3,7.3-3.27,8.03-7.3,8.03h0Z"/>
      <path class="cls-1" d="m394.7,430.47c-4.03,0-7.3-2.54-7.3-6.57v-1.46c0-4.03,3.27-7.3,7.3-7.3s7.3,3.27,7.3,7.3-3.27,8.03-7.3,8.03h0Z"/>
    </g>
    <g>
      <path class="cls-1" d="m102.7,372.07c-4.03,0-7.3-2.54-7.3-6.57v-1.46c0-4.03,3.27-7.3,7.3-7.3s7.3,3.27,7.3,7.3-3.27,8.03-7.3,8.03h0Z"/>
      <path class="cls-1" d="m102.7,401.27c-4.03,0-7.3-2.54-7.3-6.57v-1.46c0-4.03,3.27-7.3,7.3-7.3s7.3,3.27,7.3,7.3-3.27,8.03-7.3,8.03h0Z"/>
      <path class="cls-1" d="m102.7,430.47c-4.03,0-7.3-2.54-7.3-6.57v-1.46c0-4.03,3.27-7.3,7.3-7.3s7.3,3.27,7.3,7.3-3.27,8.03-7.3,8.03h0Z"/>
    </g>
  </g>
</svg>