<?xml version="1.0" encoding="UTF-8"?>
<svg id="Layer_1" data-name="Layer 1" xmlns="http://www.w3.org/2000/svg" viewBox="0 0 512 512">
  <defs>
    <style>
      .cls-1 {
        fill: #fff;
        stroke-width: 0px;
      }
    </style>
  </defs>
  <g id="Layer_18" data-name="Layer 18">
    <path class="cls-1" d="m373.26,182.2c.07-24.24-19.52-43.96-43.77-44.03-24.24-.07-43.96,19.52-44.03,43.77-.05,18.19,11.12,34.54,28.1,41.09-5.66,35.4-36.14,61.48-72,61.61-15.84-.09-31.28,5.06-43.9,14.63v-148.97c22.86-8.08,34.84-33.16,26.76-56.02-8.08-22.86-33.16-34.84-56.02-26.76-22.86,8.08-34.84,33.16-26.76,56.02,4.42,12.5,14.25,22.34,26.76,26.76v239.4c-22.86,8.08-34.84,33.16-26.76,56.02,8.08,22.86,33.16,34.84,56.02,26.76s34.84-33.16,26.76-56.02c-4.42-12.5-14.25-22.34-26.76-26.76v-31.9c0-24.25,19.65-43.9,43.9-43.9,52.15.37,96.25-38.5,102.43-90.29,17.55-6.2,29.28-22.8,29.27-41.41Zm-190.23-87.8c8.08,0,14.63,6.55,14.63,14.63s-6.55,14.63-14.63,14.63-14.63-6.55-14.63-14.63,6.55-14.63,14.63-14.63Zm0,351.2c-8.08,0-14.63-6.55-14.63-14.63s6.55-14.63,14.63-14.63,14.63,6.55,14.63,14.63-6.55,14.63-14.63,14.63Zm146.33-248.76c-8.08,0-14.63-6.55-14.63-14.63s6.55-14.63,14.63-14.63,14.63,6.55,14.63,14.63-6.55,14.63-14.63,14.63Z"/>
  </g>
</svg>