<?xml version="1.0" encoding="UTF-8"?>
<svg id="Layer_1" data-name="Layer 1" xmlns="http://www.w3.org/2000/svg" viewBox="0 0 512 512">
  <defs>
    <style>
      .cls-1 {
        fill: #fff;
        stroke-width: 0px;
      }
    </style>
  </defs>
  <path class="cls-1" d="m343.91,261.03l130.14-130.13c1.24-1.25,1.95-2.94,1.95-4.71s-.71-3.47-1.95-4.72l-78.47-78.45c-2.6-2.61-6.82-2.61-9.42,0l-130.13,130.13L125.9,43.03c-2.6-2.61-6.82-2.61-9.42,0L38.02,121.48c-2.6,2.6-2.6,6.82,0,9.43l130.13,130.13L38.02,391.16c-2.6,2.6-2.6,6.82,0,9.43l78.45,78.46c1.25,1.25,2.94,1.96,4.72,1.96s3.46-.71,4.71-1.96l130.13-130.13,130.13,130.13c1.25,1.25,2.94,1.96,4.72,1.96s3.46-.71,4.71-1.96l78.47-78.46c1.24-1.24,1.95-2.94,1.95-4.71s-.71-3.46-1.95-4.72l-130.14-130.13Zm46.96-203.86l69.03,69.03-25.39,25.38-17.49-17.49c-2.6-2.6-6.83-2.6-9.42,0-2.6,2.6-2.6,6.82,0,9.42l17.49,17.49-25.39,25.39-17.49-17.5c-2.6-2.6-6.81-2.61-9.42,0-2.6,2.6-2.6,6.82,0,9.42l17.49,17.5-25.38,25.39-17.5-17.5c-2.6-2.6-6.82-2.6-9.42,0s-2.6,6.82,0,9.42l17.5,17.5-20.98,20.97-69.03-69.03,125.42-125.41Zm-165.24,303.29l-17.5-17.5c-2.6-2.6-6.82-2.6-9.43,0-2.6,2.6-2.6,6.83,0,9.43l17.5,17.49-25.39,25.39-17.5-17.5c-2.6-2.6-6.82-2.6-9.42,0-2.6,2.6-2.6,6.82,0,9.42l17.5,17.5-25.38,25.38-17.5-17.49c-2.6-2.6-6.82-2.6-9.42,0-2.6,2.6-2.6,6.82,0,9.42l17.5,17.49-25.39,25.4-69.02-69.03,125.41-125.42,69.02,69.03-20.97,20.97Zm165.24,104.45L52.17,126.19,121.19,57.17l40.3,40.29-20.42,20.42c-2.6,2.6-2.6,6.82,0,9.43,1.31,1.3,3.01,1.95,4.72,1.95s3.41-.65,4.71-1.95l20.42-20.42,40.31,40.3-20.43,20.42c-2.6,2.6-2.6,6.82,0,9.42,1.31,1.3,3.01,1.95,4.72,1.95s3.41-.65,4.72-1.95l20.42-20.42,40.3,40.31-20.42,20.43c-2.6,2.6-2.6,6.82,0,9.42,1.3,1.31,3,1.95,4.71,1.95s3.41-.65,4.72-1.95l20.42-20.42,40.32,40.31-20.43,20.42c-2.6,2.6-2.6,6.83,0,9.43,1.31,1.31,3.01,1.96,4.72,1.96s3.41-.65,4.71-1.96l20.43-20.42,40.3,40.3-20.42,20.42c-2.6,2.6-2.6,6.82,0,9.42,1.31,1.3,3.01,1.95,4.72,1.95s3.41-.65,4.72-1.95l20.42-20.42,40.31,40.31-7.86,7.86c-2.6,2.6-2.6,6.82,0,9.42,1.3,1.3,3,1.95,4.72,1.95s3.41-.65,4.71-1.95l7.86-7.86,40.31,40.31-69.03,69.03Z"/>
  <path class="cls-1" d="m371.79,388.79c-10.53,10.53-10.53,27.65,0,38.17,5.26,5.26,12.17,7.89,19.08,7.89s13.84-2.63,19.09-7.89c10.53-10.53,10.53-27.65,0-38.17-10.2-10.2-27.97-10.19-38.17,0Zm28.75,28.75c-5.32,5.31-14,5.32-19.32,0-5.32-5.33-5.32-14,0-19.32,2.66-2.67,6.16-4,9.67-4s6.99,1.33,9.66,4c5.33,5.32,5.33,13.99,0,19.32Z"/>
</svg>